<svg xmlns="http://www.w3.org/2000/svg" xmlns:xlink="http://www.w3.org/1999/xlink" width="159.118" height="75.239" viewBox="0 0 159.118 75.239">
  <defs>
    <clipPath id="clip-path">
      <rect width="159.118" height="75.239" fill="none"/>
    </clipPath>
  </defs>
  <g id="Repeat_Grid_1" data-name="Repeat Grid 1" clip-path="url(#clip-path)">
    <g id="Group_172" data-name="Group 172" transform="translate(-880.441 -3678)">
      <g id="Group_171" data-name="Group 171">
        <path id="Path_512" data-name="Path 512" d="M964.616,3686.549l-.525,1a20.657,20.657,0,0,0-3.987-.519h-.023a20.836,20.836,0,0,0-4,.522l-.525-1a21.51,21.51,0,0,1,4.479-.618l.022,0h.066l.021,0c.179.007.356.016.532.026.1.005.206.013.307.02a20.717,20.717,0,0,1,3.63.568" fill="#818472"/>
        <path id="Path_513" data-name="Path 513" d="M977.838,3694.567a11.383,11.383,0,0,1,1.16-3.679,24.483,24.483,0,0,1-7.952,0,21.118,21.118,0,0,1,3.048,3.378c.687.934,1.318,1.926,1.927,2.888.654,1.028,1.664,2.457,2.977,4.163a11.775,11.775,0,0,1-1.16-6.75m-1-.135a12.137,12.137,0,0,0-.1,1.968c-.552-.867-1.167-1.828-1.831-2.731q-.584-.789-1.176-1.482c.43.023.862.033,1.293.033h.052c.77,0,1.543-.039,2.314-.109a12.015,12.015,0,0,0-.547,2.321" fill="#818472"/>
        <path id="Path_514" data-name="Path 514" d="M941.187,3701.318c1.312-1.707,2.324-3.136,2.977-4.165.609-.961,1.241-1.952,1.928-2.887a21.112,21.112,0,0,1,3.048-3.378,24.489,24.489,0,0,1-7.953,0,11.343,11.343,0,0,1,1.16,3.678,11.758,11.758,0,0,1-1.16,6.752m1.611-9.207c.771.07,1.545.107,2.314.108h.051c.432,0,.864-.009,1.292-.033q-.591.7-1.174,1.483c-.664.9-1.281,1.864-1.832,2.731a11.878,11.878,0,0,0-.1-1.967,12.153,12.153,0,0,0-.548-2.322" fill="#818472"/>
        <path id="Path_515" data-name="Path 515" d="M979,3703.546c-1.312,1.707-2.323,3.136-2.977,4.164-.608.96-1.24,1.953-1.927,2.887a21.076,21.076,0,0,1-3.048,3.378,24.393,24.393,0,0,1,7.952,0,11.386,11.386,0,0,1-1.16-3.678,11.771,11.771,0,0,1,1.16-6.751m-1.61,9.207c-.771-.071-1.545-.108-2.314-.11h-.051c-.432,0-.864.011-1.293.033q.593-.693,1.175-1.481c.664-.9,1.281-1.864,1.832-2.731a11.992,11.992,0,0,0,.1,1.967,12.175,12.175,0,0,0,.548,2.322" fill="#818472"/>
        <path id="Path_516" data-name="Path 516" d="M942.348,3710.3a11.366,11.366,0,0,1-1.161,3.679,24.471,24.471,0,0,1,7.953,0,21.065,21.065,0,0,1-3.047-3.378c-.688-.934-1.319-1.927-1.929-2.887-.653-1.028-1.663-2.457-2.977-4.164a11.776,11.776,0,0,1,1.161,6.75m1,.135a11.894,11.894,0,0,0,.105-1.968c.551.868,1.167,1.829,1.831,2.732q.583.789,1.175,1.481c-.429-.022-.862-.033-1.292-.033h-.052c-.769,0-1.543.039-2.314.11a12.018,12.018,0,0,0,.547-2.322" fill="#818472"/>
        <path id="Path_517" data-name="Path 517" d="M954.637,3681.828c.164.073.326.147.49.224a2.382,2.382,0,0,0,.344,2.075,2.078,2.078,0,0,1-.834-2.3" fill="#818472"/>
        <path id="Path_518" data-name="Path 518" d="M967.982,3680.7q-.876,1.3-1.67,2.651c-.561.981-1.008,1.813-1.5,2.825a11.814,11.814,0,0,0-4.721-.774,14.572,14.572,0,0,0-4.722.767c-.494-1-.945-1.841-1.5-2.818-.533-.9-1.087-1.783-1.67-2.651,1.1.446,2.237.992,2.237,1l-.006.008a1.872,1.872,0,0,0,.7,2.324,2.609,2.609,0,0,0,1.932.539,2.229,2.229,0,0,0,.477-.108l.009,0a2.413,2.413,0,0,0,.45-.216l.088-.068a1.7,1.7,0,0,0,.294-.329,1.98,1.98,0,0,0,.238-.5,1.8,1.8,0,0,0,.094-.621,1.313,1.313,0,0,0-.04-.324l-.019-.08-.026-.076-.014-.037-.008-.019,0-.01,0,0v0l-.041-.088-.036-.073-.046-.074-.1-.144a1.263,1.263,0,0,0-.25-.244,1.066,1.066,0,0,0-.636-.218l-.173.015-.087.017-.025.005h0l0,0-.012,0-.045.015-.069.027-.071.035-.13.095a.776.776,0,0,0-.183.247.742.742,0,0,0-.072.286l.009.146.034.136a.5.5,0,0,0,.144.2.634.634,0,0,0,.216.117.658.658,0,0,0,.237.019l.056-.011.013,0h.008l.032-.011.016-.006.011,0,.018-.007.042-.024.136-.117v0a.452.452,0,0,0,.082-.247l0-.072,0-.024v-.005l.026-.037.024,0,.014.019.005.015,0,.005,0,.006.019.082,0,.021a.524.524,0,0,1-.054.292.6.6,0,0,1-.154.186l-.053.041-.034.02-.029.016-.032.013-.034.015-.073.024a.861.861,0,0,1-.323.025.875.875,0,0,1-.342-.119.812.812,0,0,1-.279-.285.962.962,0,0,1-.08-.189,1.234,1.234,0,0,1-.045-.206,1.175,1.175,0,0,1,.039-.445,1.146,1.146,0,0,1,.235-.43,1.2,1.2,0,0,1,.191-.185l.113-.076.126-.069a1.767,1.767,0,0,1,.525-.154,1.7,1.7,0,0,1,.568.025,1.819,1.819,0,0,1,.526.2,2.257,2.257,0,0,1,.429.324,2.215,2.215,0,0,1,.175.194l.077.1.075.109.06.1.065.122.05.119.044.122.043.146a5.964,5.964,0,0,0,.273-.772c-.292-.358-.692-.578-.811-1.1-.152-.677.244-1.264,1.079-2.433.812,1.181,1.2,1.772,1.038,2.446-.127.515-.515.732-.813,1.078v0a6.316,6.316,0,0,0,.243.692l.018-.072.045-.124.051-.121.06-.129.064-.1.073-.112.079-.108a1.683,1.683,0,0,1,.18-.2,2.2,2.2,0,0,1,.44-.34,1.873,1.873,0,0,1,.548-.21,1.758,1.758,0,0,1,.6-.029,1.709,1.709,0,0,1,.287.059l.136.044.03.014.024.008.017.005.058.029.136.072.121.083a1.331,1.331,0,0,1,.205.193,1.2,1.2,0,0,1,.3.937.981.981,0,0,1-.052.22l-.038.1-.014.029-.01.018-.029.051a.854.854,0,0,1-.306.308.887.887,0,0,1-.371.122.914.914,0,0,1-.348-.035l-.075-.026-.042-.019-.03-.014-.015-.006-.019-.013-.033-.022-.06-.043a.649.649,0,0,1-.15-.208.527.527,0,0,1-.035-.33l.021-.067,0-.006,0-.007.011-.026.045-.019.02.029,0,.01,0,.024-.01.072a.449.449,0,0,0,.028.188l.037.074.132.141.049.027.021.01.026.011.032.01.027.009.061.009a.645.645,0,0,0,.507-.126.6.6,0,0,0,.175-.225l.044-.149.012-.16a.818.818,0,0,0-.279-.6l-.143-.1-.08-.04-.08-.03-.047-.017-.016,0-.006,0-.023-.005-.093-.02-.188-.015a1.133,1.133,0,0,0-.685.237,1.512,1.512,0,0,0-.451.564l-.039.088v0l0,.006,0,.007-.007.021-.017.04-.026.079-.019.085a2.231,2.231,0,0,0-.038.335,1.963,1.963,0,0,0,.363,1.144,1.514,1.514,0,0,0,.267.291l0,0a2.592,2.592,0,0,0,.571.3l.023.009a2.241,2.241,0,0,0,.48.108,2.617,2.617,0,0,0,1.935-.539,1.876,1.876,0,0,0,.7-2.324l-.007-.008s1.133-.549,2.238-1" fill="#818472"/>
        <path id="Path_519" data-name="Path 519" d="M965.538,3681.828c-.165.073-.328.147-.49.224a2.385,2.385,0,0,1-.344,2.075,2.079,2.079,0,0,0,.834-2.3" fill="#818472"/>
        <path id="Path_520" data-name="Path 520" d="M966.713,3691.036a3.341,3.341,0,0,0-2.851,1.939,8,8,0,0,0-.446,1l-.005.01c-.2.474-.375.969-.539,1.479h0a24.413,24.413,0,0,0-.947,4.242l-1.58-1.58-.255-.255-.254.255-1.575,1.574a24.59,24.59,0,0,0-.946-4.233c-.161-.505-.34-1-.533-1.465a8.509,8.509,0,0,0-.459-1.034,3.346,3.346,0,0,0-2.85-1.933,4.93,4.93,0,0,1,.8-.167l.135-.017a5.259,5.259,0,0,1,.6-.035h2.633a.535.535,0,0,1,.223.054c.717.335,1.436,2.118,2.154,2.118.781,0,1.585-2.119,2.37-2.171H964.8l.058.012q.164-.012.324-.012l.156,0,.153.008c.1.006.2.014.289.024l.132.016c.131.018.25.039.352.059l.1.021.045.011.083.018c.139.035.218.06.218.06" fill="#818472"/>
        <path id="Path_521" data-name="Path 521" d="M956.817,3722.2a1.131,1.131,0,0,1,.031,1.438l-.132.148-.056.048c-.747.59-2.768-.15-3.052-1.117-.346-1.169-.85-.648-1.223-.439a1.58,1.58,0,0,1-.356.2,1.118,1.118,0,0,1-.692.04,15.552,15.552,0,0,0-2.215-.677l-.081-.018a4.316,4.316,0,0,0-.834-.116c-.44,0-.58.113-.632.264l0,.115.036.133.027.054.017.025.039.04.063.04.049.013h.072l.1-.023.065-.024.086-.045.048-.03.02-.014.031-.022.019-.015-.013.132-.033.113-.022.051-.018.035-.043.064,0,0-.022.025a.508.508,0,0,1-.329.159.665.665,0,0,1-.714-.685.906.906,0,0,1,.364-.72l.113-.087.082-.051.085-.04.185-.067.086-.019.072-.013.054-.006.016,0h.015a14.8,14.8,0,0,1,1.944.087,6.25,6.25,0,0,0,1.127-.112,7.256,7.256,0,0,0,1.947-.873,4.894,4.894,0,0,0,1.574-1.6q.466-.786.887-1.645l.026.006.026.007a18.5,18.5,0,0,0,2.173.434,24.254,24.254,0,0,1-2.311,4.044,3.318,3.318,0,0,0-.158.316,1.328,1.328,0,0,0-.156.814.809.809,0,0,0,.895.947.574.574,0,0,0,.476-.351l0-.013a.745.745,0,0,0-.031-.715l-.029-.026-.007,0-.024-.015-.037-.014-.06-.008a.319.319,0,0,0-.2.056l-.065.14v.018h0l.005.053,0,.017,0,.018v0l.027.082.01.028.017.036.008.018.013.022a.576.576,0,0,1-.177-.062.381.381,0,0,1-.2-.378.5.5,0,0,1,.184-.34l.09-.058.042-.019.042-.015a.559.559,0,0,1,.24-.013.609.609,0,0,1,.382.207l.007.008" fill="#818472"/>
        <path id="Path_522" data-name="Path 522" d="M973.141,3722.113a.668.668,0,0,1-.716.685.511.511,0,0,1-.33-.159l-.022-.025v0l-.044-.064-.018-.035-.021-.051-.033-.113-.013-.13.019.013.031.022.02.014.048.03.086.045.065.024.1.023h.074l.047-.013.064-.039.04-.041.017-.025.028-.054.034-.133,0-.115c-.052-.151-.193-.265-.633-.264a4.327,4.327,0,0,0-.833.116l-.081.018a15.555,15.555,0,0,0-2.215.677,1.119,1.119,0,0,1-.692-.04,1.662,1.662,0,0,1-.357-.2c-.371-.209-.876-.73-1.221.439-.284.967-2.306,1.708-3.054,1.117l-.055-.048-.133-.148a1.132,1.132,0,0,1,.031-1.438l.007-.008a.614.614,0,0,1,.384-.207A.551.551,0,0,1,964,3722l.043.015.042.019.09.058a.5.5,0,0,1,.183.34.379.379,0,0,1-.2.378.6.6,0,0,1-.177.062l.011-.022.01-.018.016-.036.012-.028.025-.082v0l.005-.018,0-.017.005-.053h0v-.018l-.065-.14a.32.32,0,0,0-.2-.056l-.059.008-.036.014-.027.015,0,0-.03.026a.749.749,0,0,0-.032.716l.005.012a.57.57,0,0,0,.474.351c.679.048.884-.463.9-.947a1.2,1.2,0,0,0-.156-.814c-.048-.108-.1-.212-.16-.316a23.958,23.958,0,0,1-2.028-3.44h0c-.039-.083-.08-.167-.119-.251-.057-.116-.111-.234-.165-.353-.04-.09-.082-.181-.121-.273s-.081-.183-.12-.275c-.059-.133-.117-.267-.17-.4-.04-.09-.077-.184-.116-.276s-.071-.184-.109-.277a32.891,32.891,0,0,1-1.631-5.705,32.636,32.636,0,0,1-1.632,5.705l-.078-.008a13.112,13.112,0,0,1-2.126-.4,30.457,30.457,0,0,0,2.065-8.187c.073-.657.128-1.308.159-1.951.011-.162.016-.326.022-.486q.024-.6.023-1.2c0-.173,0-.344-.006-.515-.006-.481-.025-.956-.057-1.422l1.627-1.627,1.631,1.632q-.047.7-.056,1.41c0,.172-.005.342-.005.516,0,.394.006.793.022,1.2.005.161.012.324.022.486.033.646.088,1.3.159,1.957a30.457,30.457,0,0,0,2.067,8.187c.035.091.075.179.111.269s.077.177.117.266c.056.135.117.268.18.4.039.089.081.176.122.264s.085.176.127.265c.059.117.118.234.176.351.048.1.1.19.146.284l.009.017c.181.34.366.672.557.993a4.885,4.885,0,0,0,1.575,1.6,7.228,7.228,0,0,0,1.945.873,6.337,6.337,0,0,0,1.127.113,14.668,14.668,0,0,1,1.946-.088h.013l.016,0,.055.006.071.013.086.019.186.067.084.041.081.05.114.087a.914.914,0,0,1,.367.72" fill="#818472"/>
        <path id="Path_523" data-name="Path 523" d="M966.362,3702.705h-2.524l-1.878,1.879c-.013-.405-.019-.808-.012-1.207l.959-.959-2.817-2.818-1.925,1.926h0l-.891.891.964.964c.006.4,0,.8-.012,1.208l-1.885-1.885h-6.913l-.288.287-.683.685-1.262-1.259,1.262-1.26.683.685.288.287h6.913l1.721-1.721.256-.257,1.772-1.772,1.777,1.777.255.256,1.716,1.717h2.52c0,.191,0,.383,0,.575" fill="#818472"/>
        <path id="Path_524" data-name="Path 524" d="M973.044,3702.417l-1.259,1.26-.686-.684-.289-.289h-1.659c0-.191,0-.383,0-.574h1.662l.289-.288.686-.684Z" fill="#818472"/>
        <path id="Path_525" data-name="Path 525" d="M968.239,3715.131a14.787,14.787,0,0,1-3.5,1.486h0c-.042-.087-.085-.174-.123-.264q-.113-.234-.214-.477l-.087-.2h0a13.59,13.59,0,0,0,2.892-1.248c.228-.123.452-.253.675-.394q.189.578.353,1.092" fill="#818472"/>
        <path id="Path_526" data-name="Path 526" d="M961.942,3717.17h0q-.889.109-1.848.146-.96-.037-1.849-.146c-.1-.012-.2-.023-.3-.037a17.882,17.882,0,0,1-2.223-.439c-.092-.024-.186-.049-.276-.077a14.751,14.751,0,0,1-3.468-1.466c-.085-.05-.171-.1-.253-.153a14.89,14.89,0,0,1-1.856-1.343c-.08-.065-.158-.133-.237-.2a20.379,20.379,0,0,1-2.964-3.282c-1.889-2.563-3.311-5.539-5.556-7.739,2.245-2.2,3.667-5.175,5.556-7.739a20.471,20.471,0,0,1,2.978-3.295c.062.2.118.4.172.6l.005.016v0l0,.011q.092.324.171.656a12.641,12.641,0,0,0-1.261,1.527l-.054.077a13.385,13.385,0,0,0-1.092,1.754,13.944,13.944,0,0,0-1.5,4.87l-1.507,1.519,1.507,1.521a13.958,13.958,0,0,0,1.5,4.87,13.45,13.45,0,0,0,1.092,1.754l.054.077a12.576,12.576,0,0,0,1.251,1.515c.077.082.157.163.237.24a11.972,11.972,0,0,0,1.854,1.494c.084.055.166.107.251.16.21.132.424.255.639.371a13.483,13.483,0,0,0,2.9,1.248c.09.03.183.056.275.08a13.6,13.6,0,0,0,2.207.419l.293.028q.566.047,1.141.046l.256,0,.05,0,.05,0,.255,0c.386,0,.764-.015,1.139-.046h0c.037.093.076.188.115.281.057.138.114.274.171.409.039.092.077.181.118.272" fill="#818472"/>
        <path id="Path_527" data-name="Path 527" d="M979.07,3702.431l-.072.073c-2.2,2.19-3.615,5.131-5.484,7.666a20.371,20.371,0,0,1-2.932,3.254c-.124-.394-.244-.823-.355-1.29a13.225,13.225,0,0,0,1.219-1.481l.052-.077a13.116,13.116,0,0,0,1.091-1.755,13.876,13.876,0,0,0,1.5-4.87l1.505-1.52-1.505-1.519a13.9,13.9,0,0,0-1.5-4.871,13.22,13.22,0,0,0-1.091-1.753l-.052-.076a13.013,13.013,0,0,0-1.232-1.495c-.076-.081-.156-.161-.234-.238a11.887,11.887,0,0,0-1.8-1.465c-.082-.056-.166-.11-.251-.163-.234-.15-.476-.289-.719-.421a13.579,13.579,0,0,0-6.811-1.82l-.256,0-.05,0-.05,0-.256,0a13.6,13.6,0,0,0-6.813,1.82q-.347.188-.684.4c-.117-.369-.239-.73-.372-1.079a16.268,16.268,0,0,1,16.383.02c.084.049.168.1.251.153a14.858,14.858,0,0,1,1.778,1.3c.08.065.16.134.237.2a20.4,20.4,0,0,1,2.947,3.267c1.869,2.536,3.279,5.476,5.484,7.667l.072.071" fill="#818472"/>
        <path id="Path_528" data-name="Path 528" d="M951.639,3715.279c-.027.091-.058.181-.084.27q-.051.165-.1.324c-.208.7-.414,1.557-.639,2.2-.044.126-.087.243-.133.348-.23.631-1,.29-1.837-.028a12.2,12.2,0,0,1-2.383-1.049,2.764,2.764,0,0,1-.665-.621.854.854,0,0,1,.8-1.446.664.664,0,0,1,.6.624.6.6,0,0,0-.454.119.4.4,0,0,0,.012.5.949.949,0,0,0,.51.28.816.816,0,0,0,.482,0,1.124,1.124,0,0,0,.238-.1l.151-.1.078-.059.112-.1.057-.054.056-.055.062-.062.05-.056.057-.065.055-.066.112-.141.055-.076.054-.08.1-.147.121-.2c.035-.062.07-.127.108-.2.052-.1.1-.207.157-.317l.052-.114.051-.116.052-.121.051-.124.019-.048,0,0c.046-.111.087-.226.132-.346l.038-.109h0a15.22,15.22,0,0,0,1.866,1.334" fill="#818472"/>
        <path id="Path_529" data-name="Path 529" d="M953.574,3702.993c0,.173-.007.346-.013.522l0,.159c-.005.067-.006.135-.008.2,0,.114-.008.226-.013.339-.007.143-.013.286-.021.431v.006c-.008.129-.015.258-.024.387-.008.158-.018.314-.03.472s-.024.332-.037.5c-.007.083-.014.165-.022.248-.013.153-.028.306-.042.458s-.027.288-.042.431c-.018.166-.037.332-.055.5q-.026.222-.054.444c-.009.086-.021.17-.033.254-.016.134-.035.268-.053.4-.023.158-.045.317-.069.475l-.02.131c-.017.109-.033.219-.05.328s-.034.2-.051.3c-.021.135-.044.271-.069.406s-.049.279-.075.416c-.042.224-.084.446-.129.667-.023.115-.046.229-.071.343-.033.157-.066.314-.1.468-.029.132-.059.261-.089.39s-.059.252-.09.377c-.023.1-.045.19-.071.285s-.046.189-.069.281a11.787,11.787,0,0,1-1.858-1.532l.038-.174c.016-.065.031-.129.045-.2l.007-.036.008-.028v0a46.7,46.7,0,0,0,.834-6.13c.013-.158.022-.316.033-.473.007-.128.014-.255.02-.38.008-.148.015-.295.023-.442.005-.112.011-.226.013-.338,0-.068.006-.136.007-.2l.006-.157c.005-.176.009-.352.012-.525Z" fill="#818472"/>
        <path id="Path_530" data-name="Path 530" d="M951.163,3688.655c.049.109.1.22.145.333.04.1.08.193.12.293l.037.09.046.122.027.067.025.069c.045.114.086.219.105.273l0,0c.026.073.053.145.08.218s.055.157.082.237c.04.117.081.235.12.352.01.034.034.111.061.2l.026.085c.037.119.075.238.091.286l.017.06c.022.069.043.141.063.214s.041.14.061.211c.027.095.055.192.08.289s.047.176.071.264.053.2.077.3.058.229.085.346.061.255.089.385c.022.1.045.195.066.3s.042.2.062.3c.044.206.084.416.122.628.02.106.039.213.059.319s.042.242.061.362c.025.155.05.312.075.469s.045.316.069.476q.091.665.163,1.352c.014.114.025.23.035.345.024.23.043.463.061.7.01.117.019.235.026.353.005.068.009.137.013.206s.01.139.014.208c.012.2.023.4.033.6l0,.089.012.331c.006.119.01.24.014.361.006.206.012.412.013.618,0,.144.006.288.006.433v.053h-2.216c0-.1,0-.207,0-.309s0-.205-.005-.309c0-.174-.007-.348-.012-.521l0-.138,0-.051c0-.13-.009-.259-.016-.387l-.009-.211,0-.052c0-.135-.015-.269-.021-.4l-.007-.125-.018-.265c-.006-.089-.011-.175-.018-.264l-.01-.142-.021-.267-.006-.065c-.007-.081-.013-.164-.022-.244-.013-.151-.027-.3-.043-.45-.019-.193-.04-.384-.062-.574l0-.039c-.022-.177-.043-.352-.066-.528-.027-.2-.055-.406-.085-.608q-.03-.213-.066-.423c-.034-.227-.074-.452-.113-.672l0-.018-.01-.054c-.024-.133-.049-.266-.074-.4l-.017-.09c-.025-.124-.049-.247-.075-.371s-.052-.245-.079-.365-.055-.242-.082-.362-.056-.239-.086-.357l0-.009c-.032-.132-.111-.436-.167-.651-.018-.073-.037-.136-.047-.177l-.009-.024c-.032-.119-.064-.237-.1-.354l-.007-.029c-.035-.116-.07-.228-.1-.342l-.094-.3,0-.01c-.035-.114-.071-.227-.109-.336a7.184,7.184,0,0,0-2.425-3.34c-.14-.123-.278-.236-.418-.34-.067-.053-.138-.1-.206-.15-.138-.1-.275-.182-.41-.259-.067-.04-.136-.077-.2-.111s-.132-.066-.2-.1h0c-.066-.031-.131-.06-.2-.088l-.191-.075c-.128-.045-.252-.086-.374-.117l-.178-.043c-.118-.025-.231-.043-.34-.056l-.161-.013-.154-.005-.1,0h-.015l-.053,0-.083.007-.031,0-.074.01-.038.007h0l-.1.02-.105.029-.061.022-.059.023-.068.032-.076.042-.145.112-.057.06-.047.064a.572.572,0,0,0-.083.348l.01.094.012.074.013.054.011.043.013.04.023.058.016.036.017.034.044.068.034.037.037.035,0,0,.04.029.046.025.094.035.068.012h.007l.074,0,.105-.007.053-.009.052-.01.137-.039c.066-.023.129-.049.185-.074l.1-.053.043-.024.067-.038.031-.02.01-.006a1.1,1.1,0,0,1-1.093,1.09l-.1,0-.074-.008h0l-.009,0-.039-.005L943,3688.1l-.1-.029-.045-.015-.043-.016-.011-.005-.081-.037-.08-.043-.107-.068-.1-.08-.1-.088-.044-.051-.042-.049-.069-.1-.01-.016-.033-.056,0,0-.025-.044-.005-.011-.029-.063-.012-.033-.038-.1,0,0-.015-.057-.011-.04-.013-.058v-.011l-.009-.041v-.018l-.008-.071a1.422,1.422,0,0,1,0-.292,1.863,1.863,0,0,1,.879-1.4l.123-.083.127-.074h0l.174-.085.182-.071a2.62,2.62,0,0,1,.374-.1c.065-.011.129-.02.2-.028l.1-.008.086,0h.054l.054,0a2.945,2.945,0,0,1,.325.018,5.755,5.755,0,0,1,3.561,1.854,1.2,1.2,0,0,0,.868.365h.2a.264.264,0,0,0,.234-.167l.049-.09a.824.824,0,0,1,.291-.286.987.987,0,0,1,.386-.114,1.233,1.233,0,0,1,.172-.011l.061,0c.128-.006.278-.016.442-.032,1.825-.194,2.577-1.366,2.1-1.744a.545.545,0,0,0-.329-.143c-.353,0-.445.6-.445.6a1.011,1.011,0,0,1-.169-.274.693.693,0,0,1-.043-.375l.012-.053.016-.052.029-.068.026-.047.03-.046.033-.044.036-.04.065-.06.064-.048.032-.021.03-.018h0l.018-.01.06-.027.013-.006.074-.027.085-.022.052-.009.044,0,.08-.005.173.018.086.023h0l.085.031a.992.992,0,0,1,.324.236,1.191,1.191,0,0,1,.277,1.02,1.652,1.652,0,0,1-.57,1.032,4.358,4.358,0,0,1-1.306.791,1.31,1.31,0,0,0-.715,1.751" fill="#818472"/>
        <path id="Path_531" data-name="Path 531" d="M976.936,3688.134a1.039,1.039,0,0,1-.7-.259l-.054-.054-.1-.12-.044-.068-.053-.1a1.374,1.374,0,0,1-.086-.227,1.926,1.926,0,0,1-.053-.264l.04.026.067.039.044.024.1.053c.057.026.119.051.186.074l.137.039a1,1,0,0,0,.21.026l.149-.017.094-.035.124-.09.071-.091.03-.056.045-.116a1.3,1.3,0,0,0,.049-.276c.036-.46-.446-.786-1.2-.786l-.16.005-.147.012c-.118.014-.242.033-.37.061l-.134.033a4.29,4.29,0,0,0-.685.24c-.064.028-.13.058-.2.093l-.1.051c-.066.034-.134.072-.2.111-.136.077-.273.163-.41.259-.07.048-.138.1-.208.15q-.207.156-.416.34a7.169,7.169,0,0,0-2.424,3.34c-.039.109-.076.221-.11.336l-.013.037a15.388,15.388,0,0,0-1.771-1.277c.132-.343.269-.673.411-.992a1.307,1.307,0,0,0-.715-1.752,4.415,4.415,0,0,1-1.306-.791,1.653,1.653,0,0,1-.57-1.032,1.194,1.194,0,0,1,.278-1.02.954.954,0,0,1,.335-.24l.073-.027.078-.022.182-.018a.863.863,0,0,1,.619.258.662.662,0,0,1,.139.725,1.011,1.011,0,0,1-.17.275l-.007-.041-.008-.034-.017-.066-.015-.051-.055-.139h0l-.029-.055-.052-.078,0,0-.02-.022a.313.313,0,0,0-.238-.117.54.54,0,0,0-.329.142c-.482.379.271,1.551,2.094,1.745.165.017.315.026.441.032l.063,0a1.405,1.405,0,0,1,.172.011.983.983,0,0,1,.385.114.824.824,0,0,1,.291.286l.048.09a.269.269,0,0,0,.236.167h.2a1.2,1.2,0,0,0,.868-.365,5.758,5.758,0,0,1,3.562-1.854,2.924,2.924,0,0,1,.323-.018,2.622,2.622,0,0,1,.294.015l.179.024a2.592,2.592,0,0,1,.39.1l.182.069.175.086a2.538,2.538,0,0,1,.249.156,1.868,1.868,0,0,1,.88,1.4,1.367,1.367,0,0,1-1.328,1.533" fill="#818472"/>
        <path id="Path_532" data-name="Path 532" d="M974.43,3716.724a2.722,2.722,0,0,1-.664.621,12.214,12.214,0,0,1-2.384,1.049c-.836.318-1.606.659-1.836.028-.045-.105-.09-.222-.132-.348l0,0c-.224-.645-.43-1.5-.639-2.2l-.1-.324c-.027-.089-.056-.179-.085-.27l-.006-.02c-.029-.092-.059-.185-.089-.281-.112-.346-.231-.713-.358-1.1l-.038-.119,0-.012-.04-.16a45.771,45.771,0,0,1-1.286-8.076c-.06-.851-.1-1.694-.113-2.519,0-.1,0-.193-.005-.288,0-.192,0-.383,0-.574,0-.1,0-.194,0-.289a37.708,37.708,0,0,1,1.443-10.54,11.888,11.888,0,0,1,1.808,1.5,39.316,39.316,0,0,0-1.035,9.035c0,.095,0,.191,0,.289,0,.191,0,.382.005.574,0,.095,0,.192,0,.288q.025,1.242.114,2.519a47.085,47.085,0,0,0,.835,6.131v0l.008.03.007.036c.024.114.05.224.076.333s.054.222.081.331c.023.092.045.181.07.271.03.118.062.231.092.343l.048.165c.034.11.065.214.095.316l.052.157.047.143.05.149.01.026.016.045.023.064.042.112.055.147.022.057.013.03v0l.02.048.04.1.011.024.052.121.051.116.052.114.09.186.068.131.082.147.026.048c.039.069.079.134.12.2l.1.147.028.04.027.04.054.076.111.141.057.066.055.065.026.028.076.08.01.01.057.055.056.054.113.1.044.034.034.025.078.057.073.048a1.125,1.125,0,0,0,.238.1.831.831,0,0,0,.484,0,.962.962,0,0,0,.508-.281.4.4,0,0,0,.012-.5.6.6,0,0,0-.454-.119.664.664,0,0,1,.6-.623,1.019,1.019,0,0,1,1.052.642,1.03,1.03,0,0,1-.248.8" fill="#818472"/>
        <path id="Path_533" data-name="Path 533" d="M899.718,3752.153a1.71,1.71,0,0,1-.653-.855l-8.032-21.545h-5.84v.518l3.067.371a.96.96,0,0,1,.711.41l-7.6,20.234a2.59,2.59,0,0,1-.661.905l-.273.179v.424h6.338v-.494l-4.187-.461-.244-.137.017-.271,7.074-19.215,3.924,10.955a5.334,5.334,0,0,0-3.7-1.439,4.073,4.073,0,0,0-3.182,1.378,4.87,4.87,0,0,0-1.223,3.342,5.373,5.373,0,0,0,1.281,3.6,7.168,7.168,0,0,0,3.077,2.113,11.449,11.449,0,0,0,3.822.629h6.619v-.43Zm-10.055-9.564c2.163,0,3.866,1.477,5.048,4.373l1.109,3.139a1.2,1.2,0,0,1-1.306,1.8H893.44a9.793,9.793,0,0,1-5.145-1.459,4.46,4.46,0,0,1-2.149-4.052,3.987,3.987,0,0,1,.972-2.715,3.19,3.19,0,0,1,2.545-1.088" fill="#fff"/>
        <path id="Path_534" data-name="Path 534" d="M910.853,3747.28l-.07.141a15.871,15.871,0,0,1-2.5,3.9,4.2,4.2,0,0,1-2.959,1.6h-.115a3.73,3.73,0,0,1-2.98-1.147,5.281,5.281,0,0,1-.963-3.58v-10.679a.6.6,0,0,0-.18-.463.646.646,0,0,0-.457-.166h-1.65v-.735h.416a2.006,2.006,0,0,0,1.715-.857,2.9,2.9,0,0,0,.6-1.936,2.153,2.153,0,0,0-.665-1.558l-.072-.057v-.406h3.14l.007.186a5.567,5.567,0,0,1-.808,3.048,4.718,4.718,0,0,1-1.526,1.58h6.926v.735h-4.435c-.423,0-.6.183-.6.629v10.3a9.25,9.25,0,0,0,.523,3.327,1.357,1.357,0,0,0,1.4.884c1.39-.056,2.9-1.752,4.493-5.023l.1-.207Z" fill="#fff"/>
        <path id="Path_535" data-name="Path 535" d="M935.991,3748.45l-.036-.2-.822.178.039.183a5.576,5.576,0,0,1-.045,2.559c-.2.736-.48,1.113-.848,1.113-.572,0-.691-1.09-.691-2v-7.037a7.821,7.821,0,0,0-1.667-5.469,6.412,6.412,0,0,0-4.989-1.885,6.283,6.283,0,0,0-3.53,1.108,7.162,7.162,0,0,0-2.542,3l-.055.125,3.723,3.48a11.392,11.392,0,0,0-2.987,1.883,3.615,3.615,0,0,0-1.092,2.276c-1.447,2.777-2.826,4.209-4.109,4.261a1.36,1.36,0,0,1-1.4-.884,9.206,9.206,0,0,1-.524-3.325v-10.3c0-.446.18-.633.6-.633h4.437v-.731h-6.927a4.719,4.719,0,0,0,1.53-1.58,5.587,5.587,0,0,0,.8-3.049l0-.189H911.72v.406l.065.059a2.111,2.111,0,0,1,.66,1.557,2.906,2.906,0,0,1-.592,1.937,2.023,2.023,0,0,1-1.716.859h-.414v.731h1.646a.646.646,0,0,1,.456.168.6.6,0,0,1,.175.465v10.677a5.332,5.332,0,0,0,.969,3.582,3.737,3.737,0,0,0,2.985,1.147h.109a4.19,4.19,0,0,0,2.958-1.6,13.3,13.3,0,0,0,1.453-1.959,4.208,4.208,0,0,0,1.422,2.579,5.712,5.712,0,0,0,3.9,1.3,6.127,6.127,0,0,0,3.529-1.029,6.015,6.015,0,0,0,1.856-2.033v.117c0,1.863.816,2.846,2.434,2.912a2.162,2.162,0,0,0,1.58-.521,2.447,2.447,0,0,0,.754-1.424,8.946,8.946,0,0,0,.148-1.541,7.253,7.253,0,0,0-.1-1.266m-6.35,2.375a4.306,4.306,0,0,1-3.28,1.461,3.094,3.094,0,0,1-2.486-1.123,4.44,4.44,0,0,1-.967-2.965,4.337,4.337,0,0,1,.408-1.945,3.707,3.707,0,0,1,1.127-1.342,10.49,10.49,0,0,1,1.541-.931c.54-.264,1.164-.588,1.865-.973a10.306,10.306,0,0,0,1.786-1.2.717.717,0,0,0,.164-.852l-.209-.222-.135.134-.351.323-.368.322a2.512,2.512,0,0,1-.4.277c-.182.11-.328.2-.422.258a3.574,3.574,0,0,1-.438.24l-.445.223c-.084.043-.24.113-.467.219s-.382.173-.457.207-.24.1-.5.222l-.345.153a5.83,5.83,0,0,1-1.823-3.827,2.364,2.364,0,0,1,.959-2,4.145,4.145,0,0,1,2.588-.754,3.429,3.429,0,0,1,3.2,1.65,10.828,10.828,0,0,1,.986,5.412l0,3.5a5.9,5.9,0,0,1-1.539,3.535" fill="#fff"/>
        <path id="Path_536" data-name="Path 536" d="M949.1,3739.071l-3.949,3.848-.486-.488.129-.135a17.677,17.677,0,0,0,1.5-1.7,2.761,2.761,0,0,0,.506-1.262,2.606,2.606,0,0,0-.436-1.916,1.676,1.676,0,0,0-1.519-.625,2.565,2.565,0,0,0-1.819,1.3,10.528,10.528,0,0,0-1.431,3.127,33.83,33.83,0,0,0-.852,3.7,22.187,22.187,0,0,0-.341,3.252v3a.661.661,0,0,0,.6.732l2.248.412v.477h-5.9v-.4l.086-.09a1.4,1.4,0,0,0,.546-1.135v-13.4a1.479,1.479,0,0,0-.482-1.108h-.119l-.031-.193v-.317h4.628v.459l-.992.3a.814.814,0,0,0-.589.862v4.451q.205-.928.462-1.752a10.316,10.316,0,0,1,1.6-3.129,3.467,3.467,0,0,1,2.518-1.568,3.749,3.749,0,0,1,2.7.705,4.051,4.051,0,0,1,1.4,2.492Z" fill="#fff"/>
        <path id="Path_537" data-name="Path 537" d="M975.255,3748.45l-.036-.2-.818.178.032.183a5.55,5.55,0,0,1-.042,2.559c-.194.736-.479,1.113-.848,1.113-.574,0-.691-1.09-.691-2v-7.037a7.845,7.845,0,0,0-1.667-5.469,6.408,6.408,0,0,0-4.992-1.885,6.274,6.274,0,0,0-3.527,1.108,7.136,7.136,0,0,0-2.54,3l-.059.125,3.725,3.48a11.293,11.293,0,0,0-2.987,1.883,3.917,3.917,0,0,0-1.142,2.989,4.395,4.395,0,0,0,1.493,3.459,5.726,5.726,0,0,0,3.9,1.3,6.118,6.118,0,0,0,3.531-1.029,5.952,5.952,0,0,0,1.855-2.033v.117c0,1.863.818,2.846,2.435,2.912a2.144,2.144,0,0,0,1.578-.521,2.425,2.425,0,0,0,.754-1.424,8.931,8.931,0,0,0,.149-1.541,7.133,7.133,0,0,0-.1-1.266m-6.351,2.375a4.307,4.307,0,0,1-3.279,1.461,3.085,3.085,0,0,1-2.484-1.123,4.426,4.426,0,0,1-.971-2.965,4.323,4.323,0,0,1,.408-1.945,3.722,3.722,0,0,1,1.129-1.342,10.439,10.439,0,0,1,1.541-.931c.539-.264,1.165-.588,1.863-.973a10.343,10.343,0,0,0,1.786-1.2.712.712,0,0,0,.165-.852l-.2-.222-.141.134-.351.323-.368.322a2.574,2.574,0,0,1-.4.277c-.182.11-.322.2-.418.258a4.686,4.686,0,0,1-.438.244l-.447.219c-.081.043-.24.113-.468.219s-.382.173-.456.207-.22.1-.458.207l-.04.015-.342.153a5.844,5.844,0,0,1-1.826-3.827,2.366,2.366,0,0,1,.959-2,4.141,4.141,0,0,1,2.59-.754,3.418,3.418,0,0,1,3.194,1.65,10.78,10.78,0,0,1,.988,5.412l0,3.5a5.888,5.888,0,0,1-1.537,3.535" fill="#fff"/>
        <path id="Path_538" data-name="Path 538" d="M979.316,3731.4v19.772a.689.689,0,0,0,.635.764l1.9.379v.478H976.27v-.4l.089-.09a1.316,1.316,0,0,0,.547-1.135v-21.42h4.942v.471l-1.894.414a.689.689,0,0,0-.638.763" fill="#fff"/>
        <path id="Path_539" data-name="Path 539" d="M1007.8,3731.845v19.328a1.292,1.292,0,0,0,.525,1.115l.112.11v.4h-6.978v-.486l3.176-.436a.618.618,0,0,0,.631-.7v-9.85a2.147,2.147,0,0,1-1.68.825,7.205,7.205,0,0,1-3.533-1.586,7.119,7.119,0,0,0-3.123-1.524,1.676,1.676,0,0,0-1.357.692,2.564,2.564,0,0,0-.6,1.566v9.877a.614.614,0,0,0,.625.7l3.175.436v.486H991.8v-.4l.088-.09a1.31,1.31,0,0,0,.548-1.135v-19.328a1.438,1.438,0,0,0-.482-1.108h-.125l-.029-.191v-.316h6.974v.48l-3.175.439a.611.611,0,0,0-.625.7v7.262a2.839,2.839,0,0,1,.593-.481,2.409,2.409,0,0,1,1.307-.412,4.651,4.651,0,0,1,2.428.807c.83.511,1.64,1.033,2.413,1.554,1.5,1,2.518.961,3.1.069a2.866,2.866,0,0,0,.46-1.577v-7.222a.615.615,0,0,0-.627-.7l-3.18-.439v-.48h6.978v.507h-.152a1.411,1.411,0,0,0-.485,1.108" fill="#fff"/>
        <path id="Path_540" data-name="Path 540" d="M1024.943,3748.45l-.033-.2-.827.178.04.183a5.482,5.482,0,0,1-.045,2.559c-.193.736-.48,1.113-.844,1.113-.576,0-.692-1.09-.692-2v-7.037a7.831,7.831,0,0,0-1.669-5.469,6.4,6.4,0,0,0-4.989-1.885,6.278,6.278,0,0,0-3.529,1.108,7.153,7.153,0,0,0-2.541,3l-.058.125,3.726,3.48a11.332,11.332,0,0,0-2.99,1.883,3.922,3.922,0,0,0-1.138,2.989,4.392,4.392,0,0,0,1.494,3.459,5.715,5.715,0,0,0,3.894,1.3,6.133,6.133,0,0,0,3.531-1.029,5.959,5.959,0,0,0,1.854-2.033v.117c0,1.863.82,2.846,2.437,2.912a2.152,2.152,0,0,0,1.578-.521,2.431,2.431,0,0,0,.754-1.424,9.035,9.035,0,0,0,.149-1.541,7.181,7.181,0,0,0-.1-1.266m-6.349,2.375a4.306,4.306,0,0,1-3.281,1.461,3.1,3.1,0,0,1-2.487-1.123,4.455,4.455,0,0,1-.965-2.965,4.336,4.336,0,0,1,.407-1.945,3.732,3.732,0,0,1,1.129-1.342,10.389,10.389,0,0,1,1.541-.931c.537-.264,1.164-.594,1.863-.973a10.144,10.144,0,0,0,1.785-1.2.717.717,0,0,0,.164-.852l-.207-.222-.135.134-.349.323-.37.322a2.353,2.353,0,0,1-.4.277c-.182.11-.321.192-.42.258a4.424,4.424,0,0,1-.438.244l-.448.219c-.078.043-.24.113-.464.219s-.386.177-.456.207-.224.1-.459.207l-.04.015-.343.153a5.832,5.832,0,0,1-1.824-3.827,2.361,2.361,0,0,1,.959-2,4.141,4.141,0,0,1,2.59-.754,3.418,3.418,0,0,1,3.194,1.65,10.772,10.772,0,0,1,.986,5.412l.005,3.5a5.874,5.874,0,0,1-1.538,3.535" fill="#fff"/>
        <path id="Path_541" data-name="Path 541" d="M1039.559,3748.515a4.147,4.147,0,0,1-2,3.467,7.928,7.928,0,0,1-4.553,1.257l-.266,0a9.364,9.364,0,0,1-4.381-1.068,6.474,6.474,0,0,1-2.826-2.838l-.057-.129,3.692-3.426.531.528-.153.14a4.086,4.086,0,0,0-1.681,2.987,2.305,2.305,0,0,0,1.272,2.074,7.01,7.01,0,0,0,3.515.91,6.5,6.5,0,0,0,3.573-.83,2.515,2.515,0,0,0,1.365-2.156c.017-1.051-.807-1.985-2.453-2.768l-5.961-2.82c-1.838-.854-2.75-2.131-2.709-3.793a3.806,3.806,0,0,1,1.731-3.1,7.155,7.155,0,0,1,4.2-1.113,7.911,7.911,0,0,1,3.875.977,5.6,5.6,0,0,1,2.411,2.691l.056.117-3.178,3.207-.495-.5.144-.135a4.961,4.961,0,0,0,1.019-1.421,3.936,3.936,0,0,0,.44-1.522,2.1,2.1,0,0,0-1.147-1.812,6.079,6.079,0,0,0-3.135-.776,5.548,5.548,0,0,0-2.984.654,2.079,2.079,0,0,0-1.1,1.821c0,1.127.689,1.994,2.1,2.64l6.18,2.854c1.966.9,2.966,2.2,2.966,3.883" fill="#fff"/>
      </g>
    </g>
  </g>
</svg>
