<svg xmlns="http://www.w3.org/2000/svg" width="24" height="24" viewBox="0 0 24 24">
  <path id="Path_243" data-name="Path 243" d="M8598.75,358.022v5.625h-1.407V377.8h-21.187V363.647h-1.406v-5.625h4.626c-.032-.079-.052-.136-.078-.19a2.8,2.8,0,0,1,.875-3.487,3.384,3.384,0,0,1,1.327-.542h.7c.072.022.143.049.217.065a2.759,2.759,0,0,1,1.667,1.084c.18.246.347.5.53.743a11.967,11.967,0,0,0,2.132,2.132c.055-.044.1-.081.151-.12a11.589,11.589,0,0,0,2.429-2.641,2.666,2.666,0,0,1,1.262-1.041c.229-.092.47-.149.706-.222h.7a.768.768,0,0,0,.131.042,2.8,2.8,0,0,1,2.278,3.37,8.315,8.315,0,0,1-.268.807Zm-14.12,5.642h-7.049v12.72h7.049Zm4.245-.006v12.721h7.05V363.658Zm-12.709-1.434h8.455v-2.783h-8.455Zm11.27,14.163V359.44h-1.377v16.947Zm9.9-16.943h-8.455v2.785h8.455Zm-12.586-1.424.07-.084a4.9,4.9,0,0,1-.589-.523c-.462-.56-.891-1.145-1.347-1.709a1.3,1.3,0,0,0-1.209-.478,1.4,1.4,0,0,0,.123,2.789C8582.778,358.035,8583.762,358.02,8584.746,358.02Zm3.985,0c.8,0,1.574,0,2.354,0,.235,0,.47.009.7-.011a1.4,1.4,0,1,0-1.208-2.26c-.222.281-.408.592-.636.868C8589.557,357.087,8589.15,357.539,8588.731,358.022Z" transform="translate(-8574.75 -353.803)" fill="#8d8d91"/>
</svg>
