<svg xmlns="http://www.w3.org/2000/svg" width="19.24" height="19.24" viewBox="0 0 19.24 19.24">
  <g id="Group_178" data-name="Group 178" transform="translate(-1253.4 -3920.448)">
    <path id="Path_547" data-name="Path 547" d="M1263.02,3925.064a4.965,4.965,0,1,0,4.965,4.965A4.975,4.975,0,0,0,1263.02,3925.064Zm0,8.146a3.181,3.181,0,1,1,3.18-3.181A3.2,3.2,0,0,1,1263.02,3933.21Z" fill="#8d8d91"/>
    <circle id="Ellipse_8" data-name="Ellipse 8" cx="1.125" cy="1.125" r="1.125" transform="translate(1267.054 3923.823)" fill="#8d8d91"/>
    <path id="Path_548" data-name="Path 548" d="M1271.088,3922.038a5.526,5.526,0,0,0-4.073-1.59h-7.991a5.314,5.314,0,0,0-5.624,5.625v7.952a5.58,5.58,0,0,0,1.629,4.15,5.658,5.658,0,0,0,4.034,1.513h7.913a5.726,5.726,0,0,0,4.073-1.513,5.555,5.555,0,0,0,1.591-4.112v-7.99A5.565,5.565,0,0,0,1271.088,3922.038Zm-.155,12.025a3.79,3.79,0,0,1-1.125,2.832,4.008,4.008,0,0,1-2.832,1.009h-7.913a4.008,4.008,0,0,1-2.832-1.009,3.9,3.9,0,0,1-1.047-2.87v-7.952a3.868,3.868,0,0,1,1.047-2.832,3.948,3.948,0,0,1,2.832-1.009h7.991a3.868,3.868,0,0,1,2.831,1.048,4,4,0,0,1,1.048,2.793v7.99Z" fill="#8d8d91"/>
  </g>
</svg>
