<svg xmlns="http://www.w3.org/2000/svg" width="159.117" height="145.692" viewBox="0 0 159.117 145.692">
  <g id="Group_163" data-name="Group 163" transform="translate(-135.599 -57.898)">
    <path id="Path_480" data-name="Path 480" d="M226.953,80.018,225.594,82.6a53.465,53.465,0,0,0-10.315-1.343h-.059A53.948,53.948,0,0,0,204.877,82.6l-1.358-2.574a55.8,55.8,0,0,1,11.59-1.6l.056,0h.171l.053,0c.465.019.921.041,1.377.07.27.012.534.031.8.05a53.854,53.854,0,0,1,9.391,1.469" fill="#818472"/>
    <path id="Path_481" data-name="Path 481" d="M261.165,100.764a29.362,29.362,0,0,1,3-9.517,63.418,63.418,0,0,1-20.577,0,54.4,54.4,0,0,1,7.887,8.738c1.777,2.418,3.41,4.984,4.986,7.473,1.693,2.659,4.3,6.357,7.7,10.771a30.439,30.439,0,0,1-3-17.465m-2.581-.347a31.2,31.2,0,0,0-.272,5.09c-1.427-2.243-3.019-4.729-4.738-7.065q-1.509-2.042-3.041-3.836c1.111.06,2.23.086,3.345.086h.134q2.99-.006,5.988-.283a31.041,31.041,0,0,0-1.416,6.008" fill="#818472"/>
    <path id="Path_482" data-name="Path 482" d="M166.334,118.231c3.394-4.416,6.011-8.114,7.7-10.775,1.574-2.486,3.21-5.051,4.986-7.471a54.6,54.6,0,0,1,7.887-8.738,63.412,63.412,0,0,1-20.576,0,29.369,29.369,0,0,1,3,9.516,30.443,30.443,0,0,1-3,17.468M170.5,94.409c1.994.182,4,.277,5.986.281h.132c1.118,0,2.235-.024,3.344-.086q-1.532,1.8-3.039,3.838c-1.718,2.336-3.313,4.822-4.74,7.065a30.723,30.723,0,0,0-.266-5.089,31.671,31.671,0,0,0-1.417-6.009" fill="#818472"/>
    <path id="Path_483" data-name="Path 483" d="M264.166,124c-3.395,4.416-6.011,8.115-7.7,10.774-1.574,2.485-3.209,5.053-4.986,7.471a54.6,54.6,0,0,1-7.887,8.74,63.122,63.122,0,0,1,20.577,0,29.371,29.371,0,0,1-3-9.517,30.432,30.432,0,0,1,3-17.468M260,147.818c-2-.184-4-.279-5.988-.283h-.132c-1.119,0-2.236.027-3.345.086q1.533-1.8,3.039-3.834c1.719-2.336,3.314-4.822,4.74-7.065a30.938,30.938,0,0,0,.268,5.088A31.434,31.434,0,0,0,260,147.818" fill="#818472"/>
    <path id="Path_484" data-name="Path 484" d="M169.337,141.463a29.429,29.429,0,0,1-3,9.519,63.264,63.264,0,0,1,20.576,0,54.557,54.557,0,0,1-7.884-8.742c-1.779-2.416-3.413-4.984-4.989-7.469-1.692-2.659-4.305-6.358-7.7-10.774a30.467,30.467,0,0,1,3,17.466m2.579.347a30.748,30.748,0,0,0,.272-5.09c1.427,2.245,3.019,4.731,4.737,7.067q1.509,2.041,3.041,3.834c-1.111-.059-2.23-.086-3.343-.086h-.135c-1.99,0-3.992.1-5.986.283a31.276,31.276,0,0,0,1.414-6.008" fill="#818472"/>
    <path id="Path_485" data-name="Path 485" d="M201.132,67.8c.426.191.846.381,1.269.58-.023,0-.97,3.3.89,5.37a5.384,5.384,0,0,1-2.159-5.95" fill="#818472"/>
    <path id="Path_486" data-name="Path 486" d="M235.662,64.88c-1.512,2.245-2.953,4.538-4.32,6.859-1.453,2.538-2.608,4.692-3.892,7.31-3.808-1.611-7.792-2-12.214-2a37.742,37.742,0,0,0-12.219,1.983c-1.279-2.6-2.445-4.764-3.885-7.291-1.377-2.321-2.81-4.614-4.319-6.859,2.855,1.154,5.788,2.566,5.788,2.574l-.015.021c-1.139,2.094-.014,4.744,1.82,6.014a6.758,6.758,0,0,0,5,1.394,5.629,5.629,0,0,0,1.232-.281l.024-.008a6.2,6.2,0,0,0,1.166-.556l.226-.178a4.3,4.3,0,0,0,.762-.852,5.022,5.022,0,0,0,.615-1.3,4.682,4.682,0,0,0,.244-1.606,3.388,3.388,0,0,0-.1-.838l-.047-.207-.067-.2-.036-.1-.022-.049-.012-.025-.007-.008v-.008l-.1-.228-.1-.19-.117-.191-.267-.373a3.332,3.332,0,0,0-.647-.631A2.752,2.752,0,0,0,208.5,66.5l-.448.041-.224.043-.065.013h0l-.008.008-.029.006-.116.041-.18.068-.182.09-.336.247a1.983,1.983,0,0,0-.475.638,1.9,1.9,0,0,0-.185.742l.021.377.088.352a1.283,1.283,0,0,0,.373.52,1.674,1.674,0,0,0,.559.3,1.71,1.71,0,0,0,.613.048l.144-.028.036-.005h.021l.082-.029.041-.014.029-.008.045-.018.11-.062.351-.3v-.007a1.159,1.159,0,0,0,.213-.638l-.01-.185-.01-.063v-.014l.067-.1.063.007.034.049.013.039.007.014.006.016.05.211.007.056a1.34,1.34,0,0,1-.139.755,1.57,1.57,0,0,1-.4.48l-.137.107-.088.052-.076.04-.083.035-.087.039-.19.062a2.178,2.178,0,0,1-1.72-.245,2.1,2.1,0,0,1-.721-.736,2.628,2.628,0,0,1-.209-.489,3.171,3.171,0,0,1-.115-.533,2.968,2.968,0,0,1,.708-2.266,3.1,3.1,0,0,1,.494-.476l.294-.2.324-.178a4.564,4.564,0,0,1,1.36-.4,4.382,4.382,0,0,1,1.468.064,4.686,4.686,0,0,1,1.362.506,5.844,5.844,0,0,1,1.111.838,6.3,6.3,0,0,1,.451.5l.2.265.193.284.155.26.168.316.129.308.116.317.11.377a15.821,15.821,0,0,0,.707-2c-.756-.926-1.792-1.5-2.1-2.854-.394-1.752.631-3.27,2.792-6.3,2.1,3.056,3.1,4.587,2.684,6.329-.328,1.333-1.332,1.9-2.1,2.789v.006a16.389,16.389,0,0,0,.629,1.791l.048-.185.116-.323.131-.313.157-.333.164-.268.188-.288.205-.28a4.61,4.61,0,0,1,.465-.515,5.572,5.572,0,0,1,1.141-.88,4.819,4.819,0,0,1,1.416-.542,4.5,4.5,0,0,1,1.543-.075,4.37,4.37,0,0,1,.743.152l.351.114.078.037.062.019.043.014.151.074.351.188.315.213a3.5,3.5,0,0,1,.529.5,3.113,3.113,0,0,1,.769,2.426,2.713,2.713,0,0,1-.133.567l-.1.268-.036.076-.026.048-.077.131a2.191,2.191,0,0,1-.791.8,2.315,2.315,0,0,1-.959.316,2.382,2.382,0,0,1-.9-.091l-.2-.068-.109-.048-.076-.036-.038-.017-.05-.031-.087-.059-.153-.11a1.633,1.633,0,0,1-.389-.538,1.354,1.354,0,0,1-.089-.856l.052-.172.008-.015.008-.018.029-.069.116-.049.052.075-.007.027-.012.063-.026.185a1.173,1.173,0,0,0,.073.487l.1.19.344.366.126.069.054.027.068.028.082.027.07.021.158.026a1.668,1.668,0,0,0,1.311-.328,1.548,1.548,0,0,0,.454-.581l.113-.386.031-.413a2.121,2.121,0,0,0-.721-1.544l-.371-.27-.207-.1-.206-.08-.122-.043-.042-.007-.016-.007-.058-.012-.241-.05-.487-.04a2.939,2.939,0,0,0-1.772.612,3.885,3.885,0,0,0-1.166,1.461l-.1.226v.008l-.01.015-.007.018-.017.055-.045.1-.067.207-.05.219a5.494,5.494,0,0,0-.1.866,5.174,5.174,0,0,0,.27,1.656,5.078,5.078,0,0,0,.668,1.3,3.927,3.927,0,0,0,.691.754l.009.008a6.742,6.742,0,0,0,1.475.768l.061.022a5.663,5.663,0,0,0,1.242.281,6.776,6.776,0,0,0,5.006-1.394c1.834-1.27,2.953-3.92,1.821-6.014l-.018-.021c0-.008,2.933-1.42,5.791-2.574" fill="#818472"/>
    <path id="Path_487" data-name="Path 487" d="M229.339,67.8c-.427.191-.849.381-1.267.58.02,0,.969,3.3-.892,5.37a5.387,5.387,0,0,0,2.159-5.95" fill="#818472"/>
    <path id="Path_488" data-name="Path 488" d="M232.378,91.63A8.645,8.645,0,0,0,225,96.644a20.79,20.79,0,0,0-1.153,2.589l-.013.025c-.506,1.227-.971,2.507-1.4,3.828v0a63.142,63.142,0,0,0-2.451,10.975l-4.088-4.089-.658-.658-.658.658-4.076,4.074a63.628,63.628,0,0,0-2.448-10.953c-.416-1.306-.879-2.574-1.38-3.792A21.937,21.937,0,0,0,205.5,96.63a8.653,8.653,0,0,0-7.374-5,12.781,12.781,0,0,1,2.059-.434l.349-.043a13.47,13.47,0,0,1,1.546-.09h.168v0h6.644a1.364,1.364,0,0,1,.577.141c1.856.865,3.716,5.478,5.574,5.478,2.021,0,4.1-5.482,6.131-5.615l.074,0h6.195l.15.032c.284-.02.561-.032.838-.032l.4.008.4.022c.262.013.508.034.748.06l.34.043c.34.047.646.1.912.151l.256.056.117.026.213.049c.359.089.564.156.564.156" fill="#818472"/>
    <path id="Path_489" data-name="Path 489" d="M206.775,172.267a2.925,2.925,0,0,1,.078,3.721l-.34.383-.145.125c-1.932,1.525-7.163-.389-7.9-2.891-.894-3.025-2.2-1.678-3.163-1.137a4.088,4.088,0,0,1-.923.508,2.877,2.877,0,0,1-1.789.1,40.47,40.47,0,0,0-5.732-1.752l-.209-.047a11.188,11.188,0,0,0-2.156-.3c-1.139,0-1.5.291-1.637.684l-.01.3.092.343.07.139.045.066.1.1.164.1.126.036.186,0,.263-.059.168-.062.223-.118.126-.078.051-.035.079-.057.049-.039-.034.342-.085.293-.055.131-.047.092-.112.164-.006.006-.056.064a1.308,1.308,0,0,1-.852.412,1.722,1.722,0,0,1-1.847-1.773,2.342,2.342,0,0,1,.943-1.862l.291-.226.214-.131.218-.1.48-.172.223-.051.186-.031.14-.018.04,0,.038,0a38.1,38.1,0,0,1,5.031.227,16.309,16.309,0,0,0,2.916-.289,18.792,18.792,0,0,0,5.037-2.26,12.683,12.683,0,0,0,4.073-4.152c.8-1.356,1.574-2.774,2.295-4.258l.068.015.066.018a47.6,47.6,0,0,0,5.623,1.123,62.744,62.744,0,0,1-5.979,10.465,8.632,8.632,0,0,0-.409.816,3.455,3.455,0,0,0-.4,2.108,2.094,2.094,0,0,0,2.317,2.449,1.48,1.48,0,0,0,1.23-.906l.01-.035a1.929,1.929,0,0,0-.082-1.85l-.073-.068-.019-.01-.062-.039-.1-.035-.153-.022a.846.846,0,0,0-.516.145l-.169.363v.047l0,0,.013.137.008.044.013.047,0,0,.07.213.027.072.043.094.022.045.032.059a1.494,1.494,0,0,1-.458-.162.985.985,0,0,1-.52-.977,1.3,1.3,0,0,1,.477-.879l.231-.152.111-.049.107-.037a1.431,1.431,0,0,1,.622-.035,1.578,1.578,0,0,1,.988.537l.019.019" fill="#818472"/>
    <path id="Path_490" data-name="Path 490" d="M249.009,172.037a1.726,1.726,0,0,1-1.85,1.773,1.32,1.32,0,0,1-.854-.412l-.058-.064,0-.006-.115-.164-.044-.092-.055-.131-.085-.293-.036-.338.05.035.081.057.05.035.124.078.225.118.167.062.26.059.191,0,.121-.036.166-.1.1-.106.043-.066.071-.139.09-.343-.009-.3c-.135-.393-.5-.686-1.638-.684a11.191,11.191,0,0,0-2.154.3l-.211.047a40.437,40.437,0,0,0-5.73,1.752,2.881,2.881,0,0,1-1.79-.1,4.213,4.213,0,0,1-.924-.508c-.959-.541-2.266-1.888-3.16,1.137-.735,2.5-5.967,4.418-7.9,2.891l-.143-.125-.344-.383a2.929,2.929,0,0,1,.081-3.721l.018-.019a1.591,1.591,0,0,1,.993-.537,1.4,1.4,0,0,1,.615.035l.112.037.108.049.232.152a1.3,1.3,0,0,1,.476.879.984.984,0,0,1-.519.977,1.52,1.52,0,0,1-.459.162l.03-.057.025-.047.043-.094.029-.072.067-.213,0,0,.011-.047.008-.044.014-.137,0,0v-.047l-.168-.363a.846.846,0,0,0-.518-.145l-.15.022-.1.035-.068.039-.011.01-.076.068a1.931,1.931,0,0,0-.083,1.852l.012.033a1.473,1.473,0,0,0,1.225.906c1.757.125,2.287-1.2,2.322-2.449a3.113,3.113,0,0,0-.4-2.108,8.908,8.908,0,0,0-.412-.816,61.868,61.868,0,0,1-5.247-8.9h0c-.1-.215-.208-.432-.308-.651-.147-.3-.289-.6-.426-.914-.106-.232-.213-.467-.315-.705s-.209-.473-.309-.711c-.154-.344-.3-.691-.441-1.043-.1-.232-.2-.476-.3-.715s-.185-.476-.283-.717a85.329,85.329,0,0,1-4.22-14.759,84.627,84.627,0,0,1-4.221,14.759l-.2-.021a33.915,33.915,0,0,1-5.5-1.039,78.822,78.822,0,0,0,5.344-21.184c.188-1.7.332-3.383.411-5.048.028-.419.042-.841.057-1.257.041-1.041.061-2.075.061-3.094,0-.448,0-.89-.016-1.333-.015-1.244-.064-2.474-.147-3.68l4.21-4.209,4.218,4.223q-.119,1.8-.144,3.649c-.012.444-.014.885-.014,1.333,0,1.022.016,2.054.059,3.1.012.417.029.838.055,1.258.086,1.672.228,3.357.412,5.063a78.822,78.822,0,0,0,5.349,21.184c.09.234.193.463.287.695s.2.459.3.69c.145.349.3.693.465,1.041.1.232.209.457.314.683s.221.455.33.686q.228.457.456.908c.123.248.248.492.377.734l.024.045q.7,1.321,1.44,2.571a12.663,12.663,0,0,0,4.075,4.152,18.741,18.741,0,0,0,5.034,2.26,16.5,16.5,0,0,0,2.915.291,37.831,37.831,0,0,1,5.035-.229l.035,0,.041,0,.141.018.184.031.223.051.48.172.218.107.211.129.295.226a2.364,2.364,0,0,1,.947,1.862" fill="#818472"/>
    <path id="Path_491" data-name="Path 491" d="M231.47,121.821h-6.529l-4.861,4.862c-.034-1.048-.047-2.091-.03-3.124l2.481-2.481-7.287-7.29-4.983,4.982v0l-2.3,2.3,2.495,2.494c.013,1.032.005,2.077-.032,3.127l-4.876-4.878H187.656l-.746.742-1.768,1.774-3.264-3.259,3.264-3.261,1.768,1.773.746.743h17.888L210,115.88l.662-.665,4.586-4.585,4.6,4.6.659.661,4.441,4.443h6.519c0,.5,0,.99.01,1.488" fill="#818472"/>
    <path id="Path_492" data-name="Path 492" d="M248.76,121.077l-3.258,3.258-1.776-1.77-.746-.746h-4.292c-.007-.5-.009-.992-.009-1.485h4.3l.746-.745,1.776-1.77Z" fill="#818472"/>
    <path id="Path_493" data-name="Path 493" d="M236.328,153.972a38.354,38.354,0,0,1-9.051,3.846l0,0c-.11-.227-.22-.451-.319-.684-.194-.4-.377-.814-.553-1.234l-.225-.5.01,0a35.172,35.172,0,0,0,7.483-3.228c.59-.319,1.169-.655,1.745-1.02.328,1,.63,1.938.915,2.826" fill="#818472"/>
    <path id="Path_494" data-name="Path 494" d="M220.035,159.248h0q-2.3.28-4.783.377-2.484-.1-4.785-.377c-.258-.032-.51-.059-.763-.1a46.047,46.047,0,0,1-5.751-1.137c-.239-.06-.481-.127-.715-.2a38.185,38.185,0,0,1-8.973-3.795c-.218-.129-.441-.26-.654-.394a38.88,38.88,0,0,1-4.8-3.477c-.207-.168-.408-.344-.611-.525a52.809,52.809,0,0,1-7.671-8.491c-4.888-6.632-8.567-14.333-14.374-20.023,5.807-5.688,9.486-13.39,14.374-20.024a52.948,52.948,0,0,1,7.705-8.527c.161.527.308,1.044.446,1.552l.012.043,0,.01.01.029q.235.838.442,1.7a32.979,32.979,0,0,0-3.264,3.95l-.139.2a34.582,34.582,0,0,0-2.823,4.539,36.05,36.05,0,0,0-3.891,12.6l-3.9,3.931,3.9,3.935a36.071,36.071,0,0,0,3.891,12.6,34.627,34.627,0,0,0,2.823,4.537l.139.2a32.484,32.484,0,0,0,3.24,3.92c.2.213.4.422.613.621a30.718,30.718,0,0,0,4.795,3.866c.219.142.432.279.65.414.543.344,1.1.662,1.655.961a34.9,34.9,0,0,0,7.494,3.23c.234.076.474.143.713.205a34.809,34.809,0,0,0,5.709,1.084q.378.039.759.074c.975.079,1.957.118,2.952.118.218,0,.441,0,.661-.006l.13.006.13-.006c.22,0,.443.006.661.006,1,0,1.974-.039,2.945-.118h0c.1.241.2.487.3.727.146.355.294.709.442,1.059.1.238.2.468.306.7" fill="#818472"/>
    <path id="Path_495" data-name="Path 495" d="M264.352,121.113l-.186.188c-5.7,5.666-9.354,13.275-14.19,19.835a52.594,52.594,0,0,1-7.588,8.418c-.319-1.017-.629-2.129-.917-3.336a34.218,34.218,0,0,0,3.154-3.834l.134-.2a34.3,34.3,0,0,0,2.825-4.539,35.947,35.947,0,0,0,3.89-12.6l3.9-3.933-3.9-3.931a36,36,0,0,0-3.89-12.6,34.668,34.668,0,0,0-2.825-4.537l-.134-.2a33.679,33.679,0,0,0-3.188-3.869c-.195-.209-.4-.415-.6-.615a30.769,30.769,0,0,0-4.658-3.791c-.211-.144-.428-.285-.649-.422-.606-.387-1.23-.746-1.859-1.089a35.139,35.139,0,0,0-17.623-4.71c-.22,0-.443,0-.663.006l-.13-.006-.13.006c-.22,0-.443-.006-.661-.006a35.159,35.159,0,0,0-17.627,4.71c-.6.323-1.188.669-1.77,1.035-.3-.954-.619-1.888-.963-2.792,5.824-3.449,12.666-5.372,21.151-5.7,8.527.327,15.4,2.271,21.239,5.752.216.127.433.26.649.395a38.673,38.673,0,0,1,4.6,3.361c.207.169.414.348.613.525a52.812,52.812,0,0,1,7.625,8.454c4.836,6.562,8.485,14.167,14.19,19.837l.186.185" fill="#818472"/>
    <path id="Path_496" data-name="Path 496" d="M193.378,154.355c-.072.235-.151.469-.218.7-.09.286-.176.565-.264.84-.539,1.819-1.073,4.028-1.654,5.7-.114.324-.225.628-.344.9-.6,1.633-2.586.752-4.754-.07a31.786,31.786,0,0,1-6.166-2.715,7.088,7.088,0,0,1-1.719-1.608,2.21,2.21,0,0,1,2.082-3.74,1.718,1.718,0,0,1,1.563,1.613,1.563,1.563,0,0,0-1.176.309,1.027,1.027,0,0,0,.031,1.285,2.441,2.441,0,0,0,1.32.725,2.116,2.116,0,0,0,1.249.008,2.959,2.959,0,0,0,.615-.262l.391-.272.2-.152.29-.248.146-.139.146-.142.159-.162.131-.145.146-.168.143-.17.29-.365.141-.2.142-.207.249-.381c.106-.17.209-.34.313-.518.091-.16.183-.328.281-.5.133-.257.271-.535.406-.82l.135-.295.131-.3.135-.312.131-.32.05-.125,0-.006c.119-.289.227-.586.342-.9l.1-.283h0a39.493,39.493,0,0,0,4.83,3.453" fill="#818472"/>
    <path id="Path_497" data-name="Path 497" d="M198.382,122.565c-.009.449-.017.9-.033,1.352l-.013.411c-.012.175-.014.35-.021.526-.009.294-.02.583-.034.876-.016.37-.033.741-.054,1.114v.018c-.02.332-.038.666-.06,1-.023.407-.047.811-.08,1.22-.029.432-.062.86-.1,1.288-.019.214-.036.427-.057.639-.033.4-.072.793-.107,1.187-.034.372-.071.745-.111,1.113-.045.432-.094.862-.141,1.289q-.067.574-.139,1.151c-.025.22-.057.439-.086.656-.043.348-.09.693-.137,1.037-.06.41-.117.82-.179,1.229l-.052.339c-.043.284-.085.567-.13.85-.045.26-.088.522-.131.781-.053.35-.115.7-.179,1.049s-.126.723-.194,1.078c-.107.578-.218,1.155-.334,1.725-.058.3-.119.594-.182.889-.085.406-.171.81-.261,1.21-.074.34-.152.674-.229,1.008s-.152.653-.232.977c-.061.244-.118.49-.184.736s-.121.488-.179.729a30.722,30.722,0,0,1-4.809-3.965l.1-.449c.04-.168.079-.336.114-.508l.02-.094.021-.072v-.01a121.6,121.6,0,0,0,2.158-15.862c.031-.409.057-.817.083-1.223.019-.332.036-.66.054-.982.02-.385.039-.764.058-1.144.014-.292.028-.586.034-.876.007-.176.016-.35.018-.526l.016-.408c.013-.455.024-.91.032-1.359Z" fill="#818472"/>
    <path id="Path_498" data-name="Path 498" d="M192.146,85.468c.126.283.248.57.373.861.1.249.209.5.313.758l.093.234.12.315.07.173.064.178c.117.295.223.568.273.708l.005.006c.066.186.136.374.206.562s.143.406.214.613c.1.3.209.609.309.913.026.087.088.286.157.507l.068.218c.1.308.2.618.235.741l.045.154c.057.18.111.367.164.554s.106.364.155.546c.073.248.144.5.209.748.064.226.122.457.183.683.071.262.139.523.2.783.076.3.151.6.221.9.078.33.156.66.23,1,.057.254.116.505.169.766s.111.513.161.775c.114.534.217,1.078.318,1.625.052.275.1.551.15.826.054.313.111.625.159.938.066.4.129.807.194,1.212s.117.819.177,1.231q.241,1.719.424,3.5c.034.3.064.6.09.9.062.593.111,1.2.158,1.8.025.3.049.608.068.912.012.177.022.357.034.536s.023.357.035.536c.031.507.061,1.028.086,1.543l.011.231c.009.283.02.57.031.856.014.307.024.621.036.933.014.532.029,1.067.031,1.6.007.373.016.744.016,1.119v.138h-5.732c0-.267,0-.536-.009-.8s0-.531-.011-.8c-.008-.449-.019-.9-.032-1.348l-.011-.356,0-.133c-.011-.336-.024-.671-.042-1-.008-.184-.013-.366-.021-.547l-.008-.135c-.014-.349-.039-.7-.057-1.037l-.017-.324c-.014-.229-.03-.457-.045-.684s-.03-.455-.047-.683l-.026-.368-.056-.691-.016-.168c-.015-.211-.033-.423-.055-.632-.035-.391-.07-.778-.113-1.165-.047-.5-.1-.992-.16-1.484l-.011-.1c-.055-.459-.11-.912-.171-1.366-.067-.528-.14-1.051-.219-1.573-.052-.369-.109-.732-.169-1.1-.09-.587-.194-1.17-.292-1.74l-.009-.045-.025-.14q-.095-.518-.193-1.033l-.045-.233c-.063-.319-.126-.64-.193-.96s-.135-.633-.2-.944-.142-.626-.211-.938-.147-.618-.223-.923l-.005-.023c-.085-.342-.287-1.129-.432-1.684-.048-.19-.1-.351-.122-.457l-.023-.062c-.083-.308-.166-.614-.258-.918l-.018-.075c-.09-.3-.18-.59-.267-.884l-.243-.768-.009-.025c-.092-.3-.184-.588-.283-.87-.957-2.8-2.273-5.115-6.273-8.643-.363-.317-.719-.61-1.081-.879-.175-.138-.358-.264-.535-.388-.357-.25-.711-.471-1.06-.67-.174-.1-.351-.2-.522-.287s-.341-.171-.511-.253h-.005c-.171-.083-.339-.158-.5-.229l-.494-.193c-.33-.119-.651-.223-.967-.305l-.46-.11a8.913,8.913,0,0,0-.881-.145l-.417-.034-.4-.012-.247,0-.04,0-.137.008-.214.017-.081.01-.191.027-.1.016h-.01l-.256.054-.271.075-.158.057-.153.058-.177.082-.2.111-.375.29-.146.154-.121.166a1.465,1.465,0,0,0-.215.9l.026.245.031.192.033.14.029.11.033.1.059.15.043.094.042.086.116.177.088.1.1.091.006,0,.1.076.121.064.242.09.176.033h.018l.191.012.273-.017.137-.024.133-.027.355-.1c.17-.059.334-.126.479-.191l.269-.136.112-.062.174-.1.078-.05.027-.017a2.856,2.856,0,0,1-2.828,2.822l-.252-.011-.19-.021h-.005l-.025,0-.1-.014-.19-.042-.254-.075-.114-.037-.112-.043-.03-.014-.209-.094-.207-.111-.275-.177-.264-.206-.244-.229-.113-.13-.109-.129-.18-.25-.026-.041-.084-.147-.009-.01-.063-.115-.013-.029-.075-.164-.033-.083-.1-.259,0-.012-.041-.146-.027-.1-.034-.151,0-.028-.024-.107,0-.045-.022-.184a3.884,3.884,0,0,1-.005-.756,4.828,4.828,0,0,1,2.276-3.612l.319-.215.328-.192h0l.449-.219.472-.183a7.157,7.157,0,0,1,.968-.25c.169-.028.335-.051.506-.071l.252-.02.221-.008.1,0h.041l.139,0a7.613,7.613,0,0,1,.84.045,14.893,14.893,0,0,1,9.214,4.8,3.1,3.1,0,0,0,2.247.946h.515a.683.683,0,0,0,.605-.434l.127-.23a2.144,2.144,0,0,1,.752-.742,2.574,2.574,0,0,1,1-.293,3.138,3.138,0,0,1,.447-.029l.157,0c.33-.014.719-.039,1.143-.082,4.722-.5,6.669-3.533,5.421-4.513a1.426,1.426,0,0,0-.851-.37c-.914,0-1.151,1.568-1.151,1.568a2.6,2.6,0,0,1-.437-.71,1.779,1.779,0,0,1-.111-.971l.029-.137.043-.135.074-.175.067-.123.08-.117.085-.115.092-.1.168-.155.166-.123.083-.054.077-.047,0,0,.049-.024.154-.072.034-.013.19-.072.222-.055.135-.024.113-.013.207-.013.446.046.223.059h0l.22.081a2.516,2.516,0,0,1,.837.612,3.083,3.083,0,0,1,.717,2.637,4.268,4.268,0,0,1-1.475,2.671A11.263,11.263,0,0,1,194,80.937a3.386,3.386,0,0,0-1.85,4.531" fill="#818472"/>
    <path id="Path_499" data-name="Path 499" d="M258.831,84.121a2.692,2.692,0,0,1-1.818-.672l-.138-.139L256.616,83l-.114-.178-.137-.256a3.592,3.592,0,0,1-.223-.586,4.715,4.715,0,0,1-.137-.683l.1.066.172.1.113.062.267.136c.148.067.309.133.481.192l.355.1a2.561,2.561,0,0,0,.544.066l.385-.045.244-.09.32-.232.184-.236.078-.145.116-.3a3.485,3.485,0,0,0,.128-.715c.091-1.19-1.155-2.032-3.094-2.032l-.412.012-.381.031c-.3.036-.626.086-.957.157l-.348.085a11.455,11.455,0,0,0-1.771.623c-.167.073-.336.151-.508.241l-.259.13c-.171.09-.346.188-.52.289-.352.2-.706.42-1.061.67-.18.123-.357.252-.537.388q-.535.4-1.078.88c-4,3.525-5.317,5.844-6.272,8.642-.1.282-.2.571-.285.868l-.032.1a39.725,39.725,0,0,0-4.583-3.305q.513-1.332,1.063-2.568a3.38,3.38,0,0,0-1.848-4.531,11.35,11.35,0,0,1-3.379-2.047,4.277,4.277,0,0,1-1.477-2.671,3.093,3.093,0,0,1,.72-2.639,2.494,2.494,0,0,1,.866-.621l.19-.071.2-.054.47-.049a2.237,2.237,0,0,1,1.6.668,1.712,1.712,0,0,1,.362,1.877,2.688,2.688,0,0,1-.44.711l-.018-.106-.021-.089-.045-.171-.038-.129-.144-.361v0l-.077-.142-.132-.2-.005,0-.052-.059a.809.809,0,0,0-.617-.3,1.409,1.409,0,0,0-.852.369c-1.247.981.7,4.013,5.42,4.514.425.045.814.067,1.141.082l.162,0a3.453,3.453,0,0,1,.445.03,2.553,2.553,0,0,1,1,.293,2.141,2.141,0,0,1,.753.742l.123.23a.7.7,0,0,0,.611.434h.512a3.1,3.1,0,0,0,2.246-.946,14.9,14.9,0,0,1,9.215-4.8,7.356,7.356,0,0,1,.838-.047,6.909,6.909,0,0,1,.76.039l.463.062a6.942,6.942,0,0,1,1.009.258l.471.181.453.22a6.824,6.824,0,0,1,.645.406,4.831,4.831,0,0,1,2.275,3.613,3.536,3.536,0,0,1-3.434,3.968" fill="#818472"/>
    <path id="Path_500" data-name="Path 500" d="M252.345,158.093a6.973,6.973,0,0,1-1.718,1.608,31.813,31.813,0,0,1-6.166,2.715c-2.166.822-4.156,1.7-4.752.072-.118-.272-.233-.576-.342-.9l-.005-.006c-.579-1.668-1.112-3.875-1.653-5.69-.086-.275-.173-.554-.261-.84-.07-.228-.146-.462-.22-.7l-.016-.051c-.076-.238-.152-.48-.231-.728-.29-.9-.6-1.844-.926-2.844l-.1-.308-.007-.032-.1-.412a118.454,118.454,0,0,1-3.327-20.895c-.156-2.2-.251-4.383-.294-6.52,0-.248-.007-.5-.011-.744-.006-.5-.011-.992-.011-1.486,0-.253,0-.5,0-.747a97.588,97.588,0,0,1,3.735-27.272,30.8,30.8,0,0,1,4.677,3.894,101.661,101.661,0,0,0-2.677,23.378c0,.246-.006.494-.006.747,0,.494.006.988.014,1.486,0,.246,0,.5.008.744q.063,3.217.293,6.52a121.348,121.348,0,0,0,2.162,15.862v.006l.019.076.018.094c.063.295.129.58.2.861s.14.576.209.857c.059.239.116.469.18.7.079.3.161.6.24.886l.124.428c.088.283.168.553.246.817l.133.408.121.369.131.385.025.066.042.117.059.166.11.291.141.379.058.147.032.08,0,.006.05.125.106.259.027.061.135.312.132.3.134.295.234.483.174.337.213.381.067.123c.1.18.2.348.31.518l.251.381.073.1.069.1.14.2.289.365.146.17.144.168.065.072.2.207.027.028.146.142.146.139.292.248.112.088.09.064.2.149.191.123a2.9,2.9,0,0,0,.616.262,2.137,2.137,0,0,0,1.25-.006,2.451,2.451,0,0,0,1.314-.727,1.027,1.027,0,0,0,.033-1.285,1.558,1.558,0,0,0-1.175-.309,1.716,1.716,0,0,1,1.562-1.611,2.206,2.206,0,0,1,2.08,3.738" fill="#818472"/>
    <path id="Path_501" data-name="Path 501" d="M154.876,202.5a1.719,1.719,0,0,1-.654-.856L146.191,180.1h-5.84v.518l3.067.371a.962.962,0,0,1,.71.41l-7.6,20.234a2.591,2.591,0,0,1-.661.9l-.273.179v.424h6.338v-.494l-4.187-.461-.245-.137.018-.271,7.073-19.215,3.925,10.955a5.335,5.335,0,0,0-3.7-1.439,4.077,4.077,0,0,0-3.183,1.379,4.871,4.871,0,0,0-1.222,3.341,5.368,5.368,0,0,0,1.281,3.6,7.158,7.158,0,0,0,3.077,2.113,11.442,11.442,0,0,0,3.821.629h6.619v-.429Zm-10.055-9.565c2.163,0,3.866,1.477,5.048,4.373l1.109,3.139a1.2,1.2,0,0,1-1.307,1.8H148.6a9.8,9.8,0,0,1-5.144-1.459,4.459,4.459,0,0,1-2.15-4.053,3.984,3.984,0,0,1,.973-2.715,3.193,3.193,0,0,1,2.545-1.088" fill="#fff"/>
    <path id="Path_502" data-name="Path 502" d="M166.01,197.631l-.069.14a15.9,15.9,0,0,1-2.5,3.9,4.191,4.191,0,0,1-2.959,1.6h-.115a3.734,3.734,0,0,1-2.981-1.146,5.29,5.29,0,0,1-.963-3.58v-10.68a.6.6,0,0,0-.179-.463.653.653,0,0,0-.457-.166h-1.651V186.5h.416a2.009,2.009,0,0,0,1.716-.858,2.9,2.9,0,0,0,.6-1.935,2.158,2.158,0,0,0-.665-1.559l-.073-.057v-.406h3.141l.007.186a5.565,5.565,0,0,1-.809,3.049,4.735,4.735,0,0,1-1.525,1.58h6.926v.734h-4.435c-.424,0-.6.184-.6.629v10.3a9.218,9.218,0,0,0,.523,3.326,1.357,1.357,0,0,0,1.4.885c1.391-.057,2.9-1.752,4.494-5.024l.1-.207Z" fill="#fff"/>
    <path id="Path_503" data-name="Path 503" d="M191.149,198.8l-.036-.2-.822.178.039.184a5.586,5.586,0,0,1-.045,2.558c-.2.736-.481,1.113-.848,1.113-.572,0-.691-1.089-.691-2V193.6a7.827,7.827,0,0,0-1.667-5.469,6.417,6.417,0,0,0-4.99-1.884,6.282,6.282,0,0,0-3.529,1.107,7.163,7.163,0,0,0-2.542,3l-.056.125,3.724,3.481a11.332,11.332,0,0,0-2.987,1.882,3.61,3.61,0,0,0-1.092,2.276c-1.447,2.777-2.826,4.209-4.109,4.262a1.363,1.363,0,0,1-1.4-.885,9.223,9.223,0,0,1-.523-3.324v-10.3c0-.445.18-.633.6-.633h4.438v-.73h-6.928a4.709,4.709,0,0,0,1.53-1.58,5.574,5.574,0,0,0,.8-3.049l0-.19h-3.133v.406l.065.059a2.115,2.115,0,0,1,.66,1.557,2.9,2.9,0,0,1-.593,1.937,2.022,2.022,0,0,1-1.715.86h-.415v.73h1.647a.648.648,0,0,1,.456.168.606.606,0,0,1,.175.465v10.678a5.325,5.325,0,0,0,.969,3.582,3.74,3.74,0,0,0,2.985,1.146h.108a4.183,4.183,0,0,0,2.958-1.6,13.336,13.336,0,0,0,1.453-1.959,4.214,4.214,0,0,0,1.422,2.578,5.716,5.716,0,0,0,3.9,1.3,6.126,6.126,0,0,0,3.529-1.03,6.014,6.014,0,0,0,1.856-2.033v.117c0,1.864.816,2.846,2.434,2.912a2.16,2.16,0,0,0,1.579-.521,2.44,2.44,0,0,0,.755-1.424,8.948,8.948,0,0,0,.148-1.541,7.356,7.356,0,0,0-.1-1.266m-6.351,2.375a4.3,4.3,0,0,1-3.279,1.461,3.093,3.093,0,0,1-2.486-1.123,4.431,4.431,0,0,1-.967-2.964,4.354,4.354,0,0,1,.407-1.946,3.717,3.717,0,0,1,1.128-1.342,10.508,10.508,0,0,1,1.541-.931c.539-.264,1.163-.588,1.864-.973a10.288,10.288,0,0,0,1.787-1.2.719.719,0,0,0,.164-.852l-.209-.222-.135.134-.352.323-.367.322a2.512,2.512,0,0,1-.4.277c-.182.11-.328.2-.422.258a3.624,3.624,0,0,1-.439.24l-.444.223c-.084.043-.24.113-.467.219s-.383.174-.457.207-.24.1-.5.223l-.346.152a5.828,5.828,0,0,1-1.822-3.826,2.364,2.364,0,0,1,.959-2,4.145,4.145,0,0,1,2.588-.754,3.428,3.428,0,0,1,3.2,1.65,10.817,10.817,0,0,1,.987,5.412l0,3.5a5.889,5.889,0,0,1-1.539,3.535" fill="#fff"/>
    <path id="Path_504" data-name="Path 504" d="M204.256,189.422l-3.949,3.847-.485-.488.129-.135a17.535,17.535,0,0,0,1.5-1.705,2.756,2.756,0,0,0,.506-1.262,2.612,2.612,0,0,0-.436-1.916,1.677,1.677,0,0,0-1.52-.625,2.565,2.565,0,0,0-1.818,1.3,10.54,10.54,0,0,0-1.432,3.127,34.125,34.125,0,0,0-.851,3.7,22.2,22.2,0,0,0-.341,3.252v3a.662.662,0,0,0,.6.733l2.248.412v.476h-5.9v-.4l.087-.09a1.406,1.406,0,0,0,.546-1.135v-13.4a1.479,1.479,0,0,0-.482-1.108h-.119l-.032-.193V186.5h4.629v.459l-.992.3a.814.814,0,0,0-.589.862v4.451q.205-.929.462-1.752a10.329,10.329,0,0,1,1.6-3.129,3.466,3.466,0,0,1,2.517-1.568,3.752,3.752,0,0,1,2.7.705,4.058,4.058,0,0,1,1.4,2.492Z" fill="#fff"/>
    <path id="Path_505" data-name="Path 505" d="M230.413,198.8l-.036-.2-.818.178.031.184a5.532,5.532,0,0,1-.042,2.558c-.193.736-.478,1.113-.847,1.113-.574,0-.692-1.089-.692-2V193.6a7.842,7.842,0,0,0-1.667-5.469,6.409,6.409,0,0,0-4.991-1.884,6.271,6.271,0,0,0-3.527,1.107,7.13,7.13,0,0,0-2.54,3l-.059.125,3.725,3.481a11.289,11.289,0,0,0-2.988,1.882,3.921,3.921,0,0,0-1.141,2.989,4.392,4.392,0,0,0,1.493,3.459,5.727,5.727,0,0,0,3.9,1.3,6.117,6.117,0,0,0,3.531-1.03,5.961,5.961,0,0,0,1.855-2.033v.117c0,1.864.818,2.846,2.435,2.912a2.147,2.147,0,0,0,1.578-.521,2.428,2.428,0,0,0,.754-1.424,8.912,8.912,0,0,0,.148-1.541,7.149,7.149,0,0,0-.1-1.266m-6.351,2.375a4.308,4.308,0,0,1-3.279,1.461,3.087,3.087,0,0,1-2.485-1.123,4.427,4.427,0,0,1-.97-2.964,4.314,4.314,0,0,1,.408-1.946,3.7,3.7,0,0,1,1.129-1.342,10.507,10.507,0,0,1,1.541-.931c.539-.264,1.165-.588,1.863-.973a10.354,10.354,0,0,0,1.786-1.2.712.712,0,0,0,.164-.852l-.2-.222-.141.134-.351.323-.368.322a2.59,2.59,0,0,1-.4.277c-.181.11-.321.2-.418.258a4.513,4.513,0,0,1-.437.244l-.447.219c-.081.043-.241.113-.468.219s-.382.174-.456.207-.22.1-.458.207l-.04.016-.342.152a5.844,5.844,0,0,1-1.826-3.826,2.367,2.367,0,0,1,.959-2,4.139,4.139,0,0,1,2.59-.754,3.418,3.418,0,0,1,3.194,1.65,10.782,10.782,0,0,1,.988,5.412l0,3.5a5.886,5.886,0,0,1-1.537,3.535" fill="#fff"/>
    <path id="Path_506" data-name="Path 506" d="M234.474,181.752v19.771a.689.689,0,0,0,.635.764l1.9.379v.478h-5.578v-.4l.09-.09a1.315,1.315,0,0,0,.547-1.135V180.1h4.941v.471l-1.893.414a.689.689,0,0,0-.638.764" fill="#fff"/>
    <path id="Path_507" data-name="Path 507" d="M262.96,182.2v19.328a1.289,1.289,0,0,0,.525,1.115l.112.11v.4h-6.978v-.486l3.176-.436a.616.616,0,0,0,.63-.7v-9.849a2.146,2.146,0,0,1-1.679.824,7.208,7.208,0,0,1-3.534-1.586,7.109,7.109,0,0,0-3.123-1.524,1.675,1.675,0,0,0-1.356.692,2.573,2.573,0,0,0-.6,1.566v9.877a.614.614,0,0,0,.625.7l3.176.436v.486h-6.974v-.4l.088-.09a1.308,1.308,0,0,0,.547-1.135V182.2a1.435,1.435,0,0,0-.481-1.107h-.125l-.029-.192v-.316h6.974v.48l-3.176.44a.61.61,0,0,0-.625.7v7.262a2.87,2.87,0,0,1,.594-.481,2.406,2.406,0,0,1,1.307-.412,4.661,4.661,0,0,1,2.428.807c.83.512,1.64,1.033,2.413,1.554,1.5,1,2.518.961,3.1.069a2.857,2.857,0,0,0,.46-1.576V182.2a.613.613,0,0,0-.627-.7l-3.179-.44v-.48H263.6v.508h-.152a1.409,1.409,0,0,0-.485,1.107" fill="#fff"/>
    <path id="Path_508" data-name="Path 508" d="M280.1,198.8l-.033-.2-.827.178.04.184a5.491,5.491,0,0,1-.045,2.558c-.194.736-.481,1.113-.844,1.113-.576,0-.692-1.089-.692-2V193.6a7.837,7.837,0,0,0-1.669-5.469,6.4,6.4,0,0,0-4.99-1.884,6.276,6.276,0,0,0-3.528,1.107,7.146,7.146,0,0,0-2.541,3l-.058.125,3.726,3.481a11.271,11.271,0,0,0-2.99,1.882,3.924,3.924,0,0,0-1.139,2.989,4.393,4.393,0,0,0,1.494,3.459,5.719,5.719,0,0,0,3.895,1.3,6.132,6.132,0,0,0,3.531-1.03,5.959,5.959,0,0,0,1.854-2.033v.117c0,1.864.82,2.846,2.437,2.912a2.15,2.15,0,0,0,1.577-.521,2.423,2.423,0,0,0,.755-1.424,9.017,9.017,0,0,0,.149-1.541,7.284,7.284,0,0,0-.1-1.266m-6.35,2.375a4.3,4.3,0,0,1-3.28,1.461,3.1,3.1,0,0,1-2.487-1.123,4.446,4.446,0,0,1-.965-2.964,4.355,4.355,0,0,1,.406-1.946,3.742,3.742,0,0,1,1.13-1.342,10.4,10.4,0,0,1,1.541-.931c.536-.264,1.163-.594,1.862-.973a10.164,10.164,0,0,0,1.786-1.2.718.718,0,0,0,.164-.852l-.207-.222-.135.134-.35.323-.369.322a2.392,2.392,0,0,1-.4.277c-.182.11-.322.192-.42.258a4.483,4.483,0,0,1-.439.244l-.447.219c-.078.043-.24.113-.465.219s-.386.178-.455.207-.224.1-.459.207l-.04.016-.344.152a5.829,5.829,0,0,1-1.823-3.826,2.362,2.362,0,0,1,.959-2,4.141,4.141,0,0,1,2.59-.754,3.418,3.418,0,0,1,3.193,1.65,10.762,10.762,0,0,1,.987,5.412l.005,3.5a5.875,5.875,0,0,1-1.539,3.535" fill="#fff"/>
    <path id="Path_509" data-name="Path 509" d="M294.716,198.865a4.143,4.143,0,0,1-2,3.467,7.917,7.917,0,0,1-4.552,1.258l-.266,0a9.372,9.372,0,0,1-4.381-1.069,6.475,6.475,0,0,1-2.826-2.838l-.058-.129,3.693-3.425.531.527-.153.141a4.079,4.079,0,0,0-1.681,2.986,2.3,2.3,0,0,0,1.271,2.074,7.015,7.015,0,0,0,3.516.91,6.49,6.49,0,0,0,3.572-.83,2.512,2.512,0,0,0,1.366-2.156c.017-1.051-.807-1.984-2.454-2.768l-5.96-2.82c-1.838-.853-2.75-2.131-2.709-3.793a3.8,3.8,0,0,1,1.731-3.1,7.147,7.147,0,0,1,4.2-1.114,7.914,7.914,0,0,1,3.875.977,5.6,5.6,0,0,1,2.41,2.691l.057.117-3.178,3.207-.495-.5.144-.134a4.978,4.978,0,0,0,1.019-1.422,3.935,3.935,0,0,0,.44-1.522,2.1,2.1,0,0,0-1.147-1.812,6.093,6.093,0,0,0-3.136-.776,5.544,5.544,0,0,0-2.983.655,2.077,2.077,0,0,0-1.1,1.82c0,1.127.69,1.994,2.105,2.641l6.179,2.853c1.966.9,2.966,2.2,2.966,3.883" fill="#fff"/>
  </g>
</svg>
