<svg xmlns="http://www.w3.org/2000/svg" width="156.578" height="36" viewBox="0 0 156.578 36">
  <g id="Group_155" data-name="Group 155" transform="translate(-13.928 -13)">
    <g id="Group_153" data-name="Group 153">
      <path id="Path_432" data-name="Path 432" d="M32.3,19.684l-.411.779a16.142,16.142,0,0,0-3.117-.406h-.017a16.323,16.323,0,0,0-3.126.408l-.41-.778a16.824,16.824,0,0,1,3.5-.483l.017,0h.051l.017,0c.14,0,.278.012.416.021q.121.006.24.015a16.244,16.244,0,0,1,2.838.444" fill="#818472"/>
      <path id="Path_433" data-name="Path 433" d="M42.637,25.952a8.871,8.871,0,0,1,.907-2.875,19.245,19.245,0,0,1-3.07.253,19.1,19.1,0,0,1-3.147-.253,16.477,16.477,0,0,1,2.383,2.64c.537.731,1.03,1.506,1.506,2.258.512.8,1.3,1.921,2.328,3.255a9.205,9.205,0,0,1-.907-5.278m-.78-.1a9.482,9.482,0,0,0-.082,1.538c-.431-.677-.912-1.428-1.431-2.134q-.456-.618-.919-1.159c.335.018.674.026,1.01.026h.041q.9,0,1.809-.086a9.43,9.43,0,0,0-.428,1.815" fill="#818472"/>
      <path id="Path_434" data-name="Path 434" d="M13.983,31.23c1.026-1.334,1.817-2.452,2.328-3.256.475-.751.97-1.526,1.506-2.257a16.481,16.481,0,0,1,2.383-2.64,19.2,19.2,0,0,1-3.147.253,19.265,19.265,0,0,1-3.07-.253,8.846,8.846,0,0,1,.907,2.875,9.2,9.2,0,0,1-.907,5.278m1.259-7.2c.6.055,1.208.084,1.809.085h.04c.338,0,.676-.007,1.011-.026q-.464.543-.919,1.16c-.519.706-1,1.457-1.432,2.134a9.344,9.344,0,0,0-.08-1.537,9.5,9.5,0,0,0-.429-1.816" fill="#818472"/>
      <path id="Path_435" data-name="Path 435" d="M43.544,32.972c-1.026,1.335-1.816,2.452-2.328,3.256-.475.751-.969,1.527-1.506,2.257a16.533,16.533,0,0,1-2.383,2.641,19.071,19.071,0,0,1,6.217,0,8.877,8.877,0,0,1-.907-2.876,9.2,9.2,0,0,1,.907-5.278m-1.259,7.2c-.6-.055-1.208-.084-1.809-.085h-.04c-.338,0-.676.008-1.011.026q.464-.543.919-1.159c.519-.706,1-1.457,1.432-2.134a9.354,9.354,0,0,0,.081,1.537,9.5,9.5,0,0,0,.428,1.815" fill="#818472"/>
      <path id="Path_436" data-name="Path 436" d="M14.891,38.25a8.908,8.908,0,0,1-.908,2.876,19.145,19.145,0,0,1,6.217,0,16.525,16.525,0,0,1-2.382-2.641c-.537-.73-1.031-1.506-1.507-2.257-.511-.8-1.3-1.921-2.328-3.256a9.214,9.214,0,0,1,.908,5.278m.779.1a9.365,9.365,0,0,0,.082-1.538c.431.678.912,1.429,1.431,2.135q.456.616.919,1.159c-.335-.018-.674-.026-1.01-.026h-.041c-.6,0-1.206.03-1.809.085a9.356,9.356,0,0,0,.428-1.815" fill="#818472"/>
      <path id="Path_437" data-name="Path 437" d="M24.5,15.993c.129.058.255.115.383.175a1.864,1.864,0,0,0,.269,1.623,1.628,1.628,0,0,1-.652-1.8" fill="#818472"/>
      <path id="Path_438" data-name="Path 438" d="M34.931,15.109c-.457.679-.892,1.372-1.305,2.073-.439.767-.788,1.418-1.176,2.209a9.226,9.226,0,0,0-3.691-.605,11.419,11.419,0,0,0-3.692.6c-.386-.785-.739-1.439-1.173-2.2-.417-.7-.85-1.394-1.306-2.073.863.349,1.749.776,1.749.778l0,.007a1.463,1.463,0,0,0,.55,1.817,2.043,2.043,0,0,0,1.51.421,1.691,1.691,0,0,0,.373-.085l.007,0a1.883,1.883,0,0,0,.352-.168l.069-.054a1.344,1.344,0,0,0,.23-.257,1.556,1.556,0,0,0,.186-.393,1.446,1.446,0,0,0,.074-.485,1.032,1.032,0,0,0-.032-.253l-.015-.063-.02-.059-.011-.029-.006-.015,0-.008,0,0v0l-.032-.069-.028-.058-.036-.057-.08-.113a1.012,1.012,0,0,0-.2-.191.829.829,0,0,0-.5-.17l-.136.012-.067.013-.02,0h0l0,0H26.49l-.035.013-.055.02-.055.028-.1.074a.6.6,0,0,0-.2.417l.007.114.026.106a.394.394,0,0,0,.113.158.514.514,0,0,0,.169.091.53.53,0,0,0,.185.015l.044-.009.01,0H26.6l.024-.008.013,0,.009,0,.013-.005.033-.019.107-.092v0a.351.351,0,0,0,.064-.193l0-.055,0-.019v0l.02-.028.019,0,.01.015,0,.011,0,0v0l.015.064,0,.017a.39.39,0,0,1-.042.228.457.457,0,0,1-.12.145l-.041.033-.027.015-.023.013-.025.01-.026.012-.057.019a.7.7,0,0,1-.253.019.664.664,0,0,1-.267-.094.627.627,0,0,1-.218-.222.749.749,0,0,1-.063-.148.92.92,0,0,1-.035-.161.9.9,0,0,1,.214-.684.924.924,0,0,1,.149-.144l.089-.06.1-.054a1.388,1.388,0,0,1,.411-.12,1.332,1.332,0,0,1,.444.019,1.431,1.431,0,0,1,.411.153,1.793,1.793,0,0,1,.336.253,1.9,1.9,0,0,1,.136.152l.061.08.058.086.047.078.051.1.039.093.035.095.033.114a4.921,4.921,0,0,0,.214-.6c-.229-.28-.542-.452-.635-.863-.119-.529.191-.988.844-1.9.635.923.938,1.386.811,1.912-.1.4-.4.573-.636.843v0a5.206,5.206,0,0,0,.19.541l.015-.056.035-.1.04-.1.047-.1.05-.081.057-.087.062-.084a1.29,1.29,0,0,1,.14-.156,1.721,1.721,0,0,1,.345-.266,1.427,1.427,0,0,1,.428-.163,1.328,1.328,0,0,1,.466-.023,1.29,1.29,0,0,1,.224.046l.106.034.024.011.019.006.013,0,.045.023.106.056.095.065a1,1,0,0,1,.16.151.942.942,0,0,1,.233.733.777.777,0,0,1-.041.171l-.029.081-.011.023-.008.015-.023.039a.665.665,0,0,1-.239.241.7.7,0,0,1-.29.1.729.729,0,0,1-.272-.028l-.059-.02-.033-.015-.023-.011-.012,0-.015-.009-.026-.018-.046-.033a.5.5,0,0,1-.118-.163.408.408,0,0,1-.027-.259l.016-.051,0,0,0-.006.009-.02.035-.015.015.023,0,.008,0,.019-.007.055a.36.36,0,0,0,.022.148l.029.057.1.111.038.021.017.008.02.008.025.008.021.007.048.007a.5.5,0,0,0,.4-.1.456.456,0,0,0,.137-.175l.034-.117.01-.125a.641.641,0,0,0-.218-.466l-.112-.082-.063-.031-.062-.024-.037-.013-.013,0,0,0-.018,0-.073-.015-.147-.012a.887.887,0,0,0-.535.185,1.17,1.17,0,0,0-.353.441l-.031.069v0l0,0,0,.005,0,.017-.014.031-.02.062-.015.067a1.641,1.641,0,0,0-.029.261,1.569,1.569,0,0,0,.081.5,1.55,1.55,0,0,0,.2.394,1.2,1.2,0,0,0,.209.228l0,0a2.056,2.056,0,0,0,.445.232l.019.006a1.7,1.7,0,0,0,.375.085,2.052,2.052,0,0,0,1.513-.421,1.467,1.467,0,0,0,.55-1.817l-.006-.007s.887-.429,1.75-.778" fill="#818472"/>
      <path id="Path_439" data-name="Path 439" d="M33.021,15.993c-.129.058-.257.115-.383.175a1.866,1.866,0,0,1-.27,1.623,1.626,1.626,0,0,0,.653-1.8" fill="#818472"/>
      <path id="Path_440" data-name="Path 440" d="M33.939,23.192a2.613,2.613,0,0,0-2.229,1.516,6.337,6.337,0,0,0-.348.782l0,.007c-.153.371-.293.758-.422,1.157h0a19.121,19.121,0,0,0-.74,3.316l-1.235-1.235-.2-.2-.2.2-1.231,1.231a19.331,19.331,0,0,0-.74-3.31c-.126-.4-.266-.778-.417-1.146a6.6,6.6,0,0,0-.359-.808,2.616,2.616,0,0,0-2.228-1.511,3.95,3.95,0,0,1,.622-.131l.106-.013a4.214,4.214,0,0,1,.467-.027h2.058a.416.416,0,0,1,.175.042c.56.262,1.123,1.656,1.684,1.656.611,0,1.239-1.657,1.852-1.7h1.895l.045.01c.086-.007.169-.01.253-.01l.122,0,.12.007c.079,0,.154.01.226.018l.1.013c.1.014.195.03.276.046l.077.017.035.008.065.014c.108.027.17.047.17.047" fill="#818472"/>
      <path id="Path_441" data-name="Path 441" d="M26.2,47.558a.883.883,0,0,1,.023,1.124l-.1.116-.044.037a1.936,1.936,0,0,1-2.387-.873c-.27-.914-.664-.507-.955-.343a1.3,1.3,0,0,1-.279.153.872.872,0,0,1-.541.031,12.293,12.293,0,0,0-1.732-.529l-.063-.014a3.407,3.407,0,0,0-.651-.091c-.345,0-.454.088-.5.207l0,.09.028.1.021.041.014.021.03.031.05.03.038.011h.056l.079-.018.051-.019.067-.035.038-.024.016-.011.024-.017.015-.011-.011.1-.025.088-.017.04-.014.028-.034.049,0,0-.017.019a.391.391,0,0,1-.257.125.52.52,0,0,1-.558-.536.7.7,0,0,1,.285-.562l.088-.069L19,46.818l.066-.032.145-.052.067-.015.057-.01.042-.005h.012l.012,0a11.562,11.562,0,0,1,1.52.069,4.982,4.982,0,0,0,.881-.087A5.7,5.7,0,0,0,23.327,46a3.816,3.816,0,0,0,1.23-1.255q.366-.614.694-1.286l.021,0,.02.006a14.384,14.384,0,0,0,1.7.339,18.929,18.929,0,0,1-1.807,3.162,2.713,2.713,0,0,0-.124.247,1.041,1.041,0,0,0-.122.636.633.633,0,0,0,.7.74.447.447,0,0,0,.372-.273l0-.011a.584.584,0,0,0-.025-.559l-.022-.02-.006,0-.019-.012-.029-.011-.046-.006a.257.257,0,0,0-.156.043l-.051.11v.014h0l0,.041,0,.014,0,.014h0l.021.064.008.022.013.029.007.013.009.018a.466.466,0,0,1-.138-.049.3.3,0,0,1-.157-.3.391.391,0,0,1,.144-.266l.07-.046.033-.015.033-.011a.446.446,0,0,1,.188-.01.478.478,0,0,1,.3.162l.006.006" fill="#818472"/>
      <path id="Path_442" data-name="Path 442" d="M38.964,47.488a.522.522,0,0,1-.559.536.4.4,0,0,1-.258-.125l-.017-.019v0l-.035-.049-.013-.028-.017-.04-.025-.088-.011-.1.015.01.024.017.016.011.037.024.068.035.05.019.079.018h.058l.036-.011.051-.03.031-.031.013-.021.021-.041.028-.1,0-.09c-.041-.119-.151-.207-.495-.207a3.407,3.407,0,0,0-.651.091l-.064.014a12.318,12.318,0,0,0-1.731.529.872.872,0,0,1-.541-.031,1.3,1.3,0,0,1-.279-.153c-.29-.164-.685-.571-.955.343a1.935,1.935,0,0,1-2.387.873l-.044-.037-.1-.116a.885.885,0,0,1,.025-1.124l0-.006a.483.483,0,0,1,.3-.162.439.439,0,0,1,.186.01l.034.011.033.015.07.046a.391.391,0,0,1,.144.266.3.3,0,0,1-.157.3.473.473,0,0,1-.139.049l.009-.017.008-.014.013-.029L31.841,48l.02-.064h0l0-.014,0-.014,0-.041h0v-.014l-.05-.11a.258.258,0,0,0-.157-.043l-.045.006-.029.011-.021.012,0,0-.023.02a.583.583,0,0,0-.025.56l0,.01a.444.444,0,0,0,.37.273c.531.038.691-.361.7-.74a.933.933,0,0,0-.122-.636,2.714,2.714,0,0,0-.124-.247,18.69,18.69,0,0,1-1.586-2.689h0c-.031-.065-.063-.131-.093-.2-.044-.09-.087-.183-.129-.276-.032-.07-.064-.141-.095-.213s-.063-.143-.093-.215c-.047-.1-.092-.209-.133-.315-.032-.07-.061-.144-.091-.216s-.056-.144-.085-.217a25.8,25.8,0,0,1-1.276-4.459,25.449,25.449,0,0,1-1.275,4.459l-.062-.006a10.257,10.257,0,0,1-1.662-.314,23.806,23.806,0,0,0,1.615-6.4c.057-.514.1-1.022.124-1.525.009-.127.013-.255.018-.38q.018-.472.018-.935c0-.136,0-.269,0-.4-.005-.376-.019-.747-.044-1.112l1.272-1.272,1.274,1.276c-.023.363-.038.731-.043,1.1,0,.134,0,.267,0,.4,0,.309,0,.62.017.935,0,.126.009.253.017.38.026.505.069,1.015.124,1.53a23.844,23.844,0,0,0,1.617,6.4c.027.071.058.14.087.21s.06.139.091.208c.044.106.091.21.141.315.03.07.063.138.1.206s.066.138.1.208l.138.274q.055.112.114.222l.007.013q.211.4.435.777A3.826,3.826,0,0,0,34.2,46a5.683,5.683,0,0,0,1.522.683,4.971,4.971,0,0,0,.88.087,11.585,11.585,0,0,1,1.522-.069l.01,0h.013l.042.005.056.01.067.015.145.052.066.032.064.039.089.069a.71.71,0,0,1,.286.562" fill="#818472"/>
      <path id="Path_443" data-name="Path 443" d="M33.665,32.315H31.692l-1.469,1.469c-.01-.317-.014-.632-.009-.944l.75-.75-2.2-2.2-1.506,1.5h0l-.7.7.754.754c0,.312,0,.628-.01.945l-1.473-1.474h-5.4l-.226.224-.534.536-.986-.985.986-.985.534.536.226.224h5.4l1.345-1.345.2-.2,1.386-1.386,1.389,1.39.2.2,1.342,1.342h1.97c0,.15,0,.3,0,.45" fill="#818472"/>
      <path id="Path_444" data-name="Path 444" d="M38.889,32.09l-.985.984-.536-.534-.225-.226h-1.3c0-.15,0-.3,0-.448h1.3l.225-.226.536-.534Z" fill="#818472"/>
      <path id="Path_445" data-name="Path 445" d="M35.132,42.03A11.625,11.625,0,0,1,32.4,43.192h0c-.033-.068-.066-.136-.1-.206-.059-.122-.114-.246-.167-.373l-.068-.152,0,0a10.612,10.612,0,0,0,2.261-.975c.178-.1.353-.2.527-.308.1.3.19.585.276.854" fill="#818472"/>
      <path id="Path_446" data-name="Path 446" d="M30.209,43.624h0c-.464.056-.945.094-1.446.114q-.75-.03-1.445-.114c-.078-.01-.154-.018-.231-.029a13.992,13.992,0,0,1-1.738-.344c-.072-.018-.145-.038-.216-.059a11.574,11.574,0,0,1-2.711-1.147c-.066-.039-.133-.078-.2-.119a11.64,11.64,0,0,1-1.452-1.051c-.062-.05-.123-.1-.184-.158a15.946,15.946,0,0,1-2.318-2.566c-1.477-2-2.589-4.331-4.343-6.05,1.754-1.719,2.866-4.046,4.343-6.051A16.027,16.027,0,0,1,20.6,23.474c.049.159.093.316.135.469l0,.013,0,0,0,.009c.047.169.092.34.133.512a9.957,9.957,0,0,0-.986,1.194l-.042.06a10.512,10.512,0,0,0-.853,1.372,10.894,10.894,0,0,0-1.176,3.807L16.641,32.1l1.177,1.189A10.9,10.9,0,0,0,18.994,37.1a10.5,10.5,0,0,0,.853,1.371l.042.06a9.778,9.778,0,0,0,.979,1.185c.059.064.122.127.185.187A9.284,9.284,0,0,0,22.5,41.068c.066.043.13.085.2.126q.248.155.5.29a10.575,10.575,0,0,0,2.265.976c.071.023.143.043.215.062a10.45,10.45,0,0,0,1.725.327l.23.023c.294.024.591.035.891.035H29c.3,0,.6-.011.889-.035h0c.029.072.06.147.09.219.045.108.089.215.134.32.03.072.061.142.092.213" fill="#818472"/>
      <path id="Path_447" data-name="Path 447" d="M43.6,32.1l-.056.057c-1.724,1.712-2.826,4.011-4.288,5.993a15.961,15.961,0,0,1-2.292,2.544c-.1-.308-.19-.643-.277-1.008a10.357,10.357,0,0,0,.952-1.159l.041-.06a10.441,10.441,0,0,0,.854-1.371,10.87,10.87,0,0,0,1.175-3.808L40.886,32.1l-1.177-1.188A10.89,10.89,0,0,0,38.534,27.1a10.575,10.575,0,0,0-.854-1.371l-.041-.059a10.16,10.16,0,0,0-.963-1.169c-.059-.063-.121-.125-.183-.186a9.294,9.294,0,0,0-1.407-1.145c-.064-.044-.129-.087-.2-.128-.183-.117-.372-.225-.562-.329A10.619,10.619,0,0,0,29,21.3l-.2,0-.04,0-.039,0-.2,0A10.628,10.628,0,0,0,23.2,22.718c-.181.1-.358.2-.534.313-.092-.288-.187-.571-.291-.844a12.718,12.718,0,0,1,12.808.016l.2.119a11.766,11.766,0,0,1,1.39,1.016c.063.051.125.105.186.159a15.952,15.952,0,0,1,2.3,2.554c1.462,1.983,2.564,4.281,4.288,5.994l.056.056" fill="#818472"/>
      <path id="Path_448" data-name="Path 448" d="M22.155,42.145c-.022.071-.046.142-.066.211-.027.086-.053.171-.08.254-.163.549-.324,1.217-.5,1.721-.034.1-.068.19-.1.271-.18.494-.781.227-1.436-.021a9.583,9.583,0,0,1-1.863-.82,2.144,2.144,0,0,1-.519-.486.667.667,0,0,1,.629-1.13.519.519,0,0,1,.472.487.473.473,0,0,0-.356.094.31.31,0,0,0,.01.388.736.736,0,0,0,.4.219.637.637,0,0,0,.377,0,.889.889,0,0,0,.186-.079l.118-.082.061-.046.088-.075.044-.042.044-.043.048-.049.04-.044.044-.05.043-.052.087-.11.043-.06.043-.062.075-.115c.032-.052.063-.1.095-.157l.085-.152c.04-.078.082-.162.122-.248l.041-.089.04-.091.04-.094.04-.1.015-.038h0c.036-.088.068-.178.1-.271l.03-.086h0a11.836,11.836,0,0,0,1.46,1.043" fill="#818472"/>
      <path id="Path_449" data-name="Path 449" d="M23.667,32.54c0,.136,0,.271-.01.408l0,.124c0,.053,0,.106-.006.159,0,.089-.007.177-.011.265,0,.112-.01.224-.016.337v.005q-.009.15-.018.3c-.007.123-.014.245-.024.368s-.019.26-.029.389c-.006.065-.011.129-.017.194-.01.119-.022.239-.033.358s-.021.225-.033.337c-.014.13-.029.26-.043.389s-.028.231-.042.348c-.007.066-.017.132-.026.2-.013.1-.027.209-.041.313-.018.124-.035.248-.054.371l-.016.1-.039.257c-.014.078-.027.157-.04.236-.016.106-.035.212-.054.317s-.038.218-.058.326c-.033.174-.066.348-.1.521-.018.089-.036.179-.056.268q-.037.185-.078.366c-.023.1-.046.2-.069.305s-.046.2-.071.3c-.018.074-.035.148-.055.222s-.037.148-.054.22a9.191,9.191,0,0,1-1.453-1.2l.03-.135c.012-.051.024-.1.035-.154l.006-.028.006-.022v0a36.651,36.651,0,0,0,.652-4.793c.01-.123.017-.247.025-.369.006-.1.011-.2.016-.3.007-.116.012-.231.018-.346,0-.088.008-.177.01-.264q0-.08.006-.159l0-.124c.005-.137.008-.274.01-.41Z" fill="#818472"/>
      <path id="Path_450" data-name="Path 450" d="M21.783,21.331c.038.085.075.172.112.26s.063.151.095.229l.028.07.036.1.021.052.02.054c.035.089.067.171.082.214h0c.02.057.041.113.062.17s.043.123.064.185c.032.092.064.184.094.276l.047.153.021.066c.029.093.059.187.071.224l.014.047c.017.054.033.111.049.167s.032.11.047.165c.022.075.043.151.063.226s.037.138.055.207.042.157.061.236.045.18.066.271.047.2.07.3c.017.077.035.153.051.231s.033.156.049.235c.034.161.065.326.1.491.016.083.031.166.046.249s.033.189.048.284c.02.121.039.244.058.366s.036.247.054.372c.049.346.091.7.128,1.057.011.09.019.18.027.27.019.18.034.362.048.545q.012.136.021.276c0,.053.006.107.01.161s.007.108.01.162c.01.154.019.311.026.466l0,.07c0,.086.006.173.009.259s.008.188.011.282c0,.161.009.322.01.483,0,.113,0,.225,0,.338v.042H21.94c0-.08,0-.162,0-.241s0-.161,0-.242c0-.136,0-.272-.01-.407l0-.108V30.6c0-.1-.008-.2-.013-.3l-.006-.166,0-.04c0-.106-.012-.211-.017-.314l-.005-.1c0-.069-.009-.138-.014-.206s-.009-.138-.014-.207l-.008-.111-.017-.209,0-.05c-.005-.064-.01-.129-.017-.192-.011-.118-.021-.235-.034-.351-.014-.151-.031-.3-.049-.449l0-.03c-.017-.139-.033-.276-.051-.413-.021-.16-.043-.318-.067-.475-.016-.112-.033-.222-.051-.331-.027-.177-.058-.354-.088-.526l0-.013-.007-.043c-.019-.1-.039-.208-.059-.312l-.013-.07c-.019-.1-.038-.194-.059-.29s-.04-.192-.061-.286-.043-.189-.064-.283-.044-.187-.067-.279l0-.007c-.025-.1-.087-.341-.13-.509-.015-.057-.029-.106-.037-.138l-.007-.019c-.025-.093-.05-.185-.078-.277l-.006-.023c-.027-.09-.054-.178-.08-.267l-.074-.232,0-.007c-.028-.09-.056-.178-.086-.263a5.608,5.608,0,0,0-1.9-2.612c-.109-.1-.217-.184-.326-.265-.053-.042-.108-.08-.162-.117-.108-.076-.214-.143-.32-.2-.053-.031-.106-.06-.158-.087s-.1-.052-.154-.076h0c-.051-.025-.1-.048-.152-.069l-.15-.059c-.1-.036-.2-.067-.292-.092l-.139-.033c-.092-.02-.18-.034-.266-.044l-.126-.01-.12,0h-.075l-.012,0-.041,0-.065,0-.024,0-.058.008-.03.005h0l-.077.016-.082.023-.048.017-.046.018-.054.025-.059.033-.113.088-.045.046-.036.05a.442.442,0,0,0-.065.272l.008.074.009.058.01.042.009.034.01.031.017.045.013.029.013.026.035.053.027.029.028.028h0l.031.023.036.019.074.027.053.01h.005l.058,0,.082-.005.042-.008.04-.008.107-.03c.052-.018.1-.038.145-.058l.081-.041.034-.019.052-.03.024-.015.008-.005a.861.861,0,0,1-.854.852l-.076,0-.058-.006h-.009l-.03,0L15.4,20.9l-.077-.023-.035-.011-.034-.013-.008,0-.064-.029-.062-.033-.083-.054-.08-.062-.074-.069-.034-.04-.033-.039-.054-.075-.008-.012-.026-.045,0,0-.019-.035,0-.008-.023-.05-.01-.025-.029-.078v0l-.013-.044-.008-.031-.01-.046v-.009l-.007-.032v-.013l-.006-.056a1.081,1.081,0,0,1,0-.228,1.459,1.459,0,0,1,.688-1.092l.1-.065.1-.058h0l.136-.066.142-.055a2.2,2.2,0,0,1,.292-.076l.153-.021.076-.006.067,0h.085a2.162,2.162,0,0,1,.254.014,4.5,4.5,0,0,1,2.784,1.449.941.941,0,0,0,.679.286H20.3a.209.209,0,0,0,.183-.131l.038-.07a.652.652,0,0,1,.227-.224.778.778,0,0,1,.3-.089.968.968,0,0,1,.135-.008h.047c.1-.005.217-.012.346-.025,1.426-.152,2.015-1.068,1.638-1.364a.433.433,0,0,0-.258-.112c-.276,0-.347.474-.347.474a.749.749,0,0,1-.132-.215.534.534,0,0,1-.034-.293l.009-.041.013-.041.022-.053.021-.037.023-.036.026-.034.028-.032.051-.046.05-.038.025-.016.023-.014h0l.014-.008.047-.021.01,0,.058-.022.067-.017.04-.007.035,0,.062,0,.135.014.067.018h0l.066.025a.768.768,0,0,1,.253.184.932.932,0,0,1,.217.8,1.29,1.29,0,0,1-.446.807,3.388,3.388,0,0,1-1.021.618,1.024,1.024,0,0,0-.558,1.37" fill="#818472"/>
      <path id="Path_451" data-name="Path 451" d="M41.932,20.923a.808.808,0,0,1-.549-.2l-.042-.041-.078-.094-.035-.054-.041-.077a.971.971,0,0,1-.067-.177,1.352,1.352,0,0,1-.042-.207l.032.02.052.031.034.019.08.041c.045.02.094.04.146.058l.107.031a.758.758,0,0,0,.164.02l.117-.014.073-.027.1-.07.056-.071.023-.044.035-.091a1.061,1.061,0,0,0,.039-.216c.028-.359-.349-.614-.935-.614l-.124,0-.116.009c-.092.011-.189.026-.289.048l-.1.025a3.482,3.482,0,0,0-.535.189c-.05.021-.1.045-.153.072l-.079.04c-.051.027-.1.056-.157.087a3.69,3.69,0,0,0-.32.2c-.055.036-.108.076-.163.117-.108.081-.216.169-.325.266a5.6,5.6,0,0,0-1.9,2.611c-.031.085-.059.172-.087.262l-.009.03a12.009,12.009,0,0,0-1.385-1c.1-.269.21-.527.321-.776a1.021,1.021,0,0,0-.558-1.369,3.424,3.424,0,0,1-1.021-.619,1.291,1.291,0,0,1-.447-.807.936.936,0,0,1,.218-.8.744.744,0,0,1,.262-.188l.057-.021.061-.017.142-.015a.68.68,0,0,1,.484.2.517.517,0,0,1,.109.567.777.777,0,0,1-.133.215l-.005-.032-.007-.026-.013-.052-.012-.039-.043-.109h0l-.023-.043-.04-.061h0L34.79,18.1a.244.244,0,0,0-.186-.092.426.426,0,0,0-.258.112c-.376.3.212,1.212,1.638,1.364.128.013.246.02.345.025l.049,0a1.156,1.156,0,0,1,.134.009.766.766,0,0,1,.3.089.644.644,0,0,1,.227.224l.037.07a.211.211,0,0,0,.185.131h.155a.937.937,0,0,0,.678-.286A4.5,4.5,0,0,1,40.881,18.3a2.147,2.147,0,0,1,.253-.015,2.2,2.2,0,0,1,.229.012l.14.019a1.977,1.977,0,0,1,.305.078l.143.055.136.066a1.993,1.993,0,0,1,.195.123,1.459,1.459,0,0,1,.688,1.092,1.068,1.068,0,0,1-1.038,1.2" fill="#818472"/>
      <path id="Path_452" data-name="Path 452" d="M39.972,43.275a2.108,2.108,0,0,1-.519.486,9.583,9.583,0,0,1-1.863.82c-.654.248-1.256.515-1.436.022-.035-.082-.07-.174-.1-.272l0,0c-.175-.5-.336-1.171-.5-1.719-.026-.083-.053-.168-.079-.254-.021-.069-.044-.14-.066-.211l0-.015-.07-.22c-.088-.27-.18-.557-.28-.859l-.03-.094,0-.009-.031-.125a35.679,35.679,0,0,1-1.005-6.313c-.048-.666-.076-1.325-.089-1.97l0-.225c0-.151,0-.3,0-.449,0-.077,0-.152,0-.226a29.47,29.47,0,0,1,1.128-8.24,9.255,9.255,0,0,1,1.413,1.176,30.73,30.73,0,0,0-.808,7.064c0,.074,0,.149,0,.226,0,.149,0,.3,0,.449,0,.074,0,.15,0,.225q.02.972.089,1.97a36.7,36.7,0,0,0,.653,4.793h0l.006.023,0,.029c.019.089.039.175.06.26s.042.174.063.259.035.142.055.212c.024.092.048.181.072.268l.038.129.074.247.04.123.037.112.039.116.008.02.013.035.017.051.034.088.042.114.018.044.009.025h0l.015.038.032.079.008.018.041.094.04.091.04.089.071.146.052.1.065.115.02.037c.03.055.062.1.094.157l.076.115.022.031.02.031.043.06.087.11.044.052.044.05.019.022.06.063.008.008.045.043.044.042.088.075.034.027.027.019.06.045.058.037a.847.847,0,0,0,.186.079.64.64,0,0,0,.378,0,.738.738,0,0,0,.4-.219.31.31,0,0,0,.01-.388.471.471,0,0,0-.355-.094.519.519,0,0,1,.472-.487.667.667,0,0,1,.628,1.13" fill="#818472"/>
    </g>
    <g id="Group_154" data-name="Group 154">
      <path id="Path_453" data-name="Path 453" d="M65.044,39.128a1.3,1.3,0,0,1-.493-.645L58.494,22.234h-4.4v.39l2.313.28a.729.729,0,0,1,.536.31L51.21,38.474a1.953,1.953,0,0,1-.5.682l-.206.135v.32h4.78v-.373l-3.158-.347-.184-.1.013-.2,5.334-14.491,2.96,8.261a4.025,4.025,0,0,0-2.79-1.085,3.072,3.072,0,0,0-2.4,1.04,3.669,3.669,0,0,0-.922,2.52,4.053,4.053,0,0,0,.966,2.715,5.4,5.4,0,0,0,2.32,1.594,8.651,8.651,0,0,0,2.882.474H65.3v-.324Zm-7.583-7.213c1.631,0,2.916,1.113,3.807,3.3L62.1,37.58a1.049,1.049,0,0,1-.031,1.014,1.061,1.061,0,0,1-.954.345h-.81a7.389,7.389,0,0,1-3.88-1.1,3.363,3.363,0,0,1-1.621-3.057,3.007,3.007,0,0,1,.734-2.047,2.4,2.4,0,0,1,1.919-.82" fill="#fff"/>
      <path id="Path_454" data-name="Path 454" d="M73.441,35.453l-.052.106A12,12,0,0,1,71.5,38.5a3.169,3.169,0,0,1-2.232,1.208h-.086a2.816,2.816,0,0,1-2.248-.865,3.981,3.981,0,0,1-.726-2.7V28.088a.452.452,0,0,0-.136-.349.488.488,0,0,0-.345-.126H64.485V27.06H64.8a1.514,1.514,0,0,0,1.294-.647,2.191,2.191,0,0,0,.453-1.46,1.624,1.624,0,0,0-.5-1.175l-.054-.043v-.306h2.368l0,.14a4.2,4.2,0,0,1-.609,2.3A3.566,3.566,0,0,1,66.6,27.06h5.223v.553H68.481c-.32,0-.455.139-.455.475v7.77a6.951,6.951,0,0,0,.394,2.508,1.023,1.023,0,0,0,1.059.667c1.049-.042,2.19-1.321,3.388-3.788l.074-.156Z" fill="#fff"/>
      <path id="Path_455" data-name="Path 455" d="M92.4,36.335l-.028-.149-.62.134.03.139a4.214,4.214,0,0,1-.034,1.929c-.147.556-.362.84-.639.84-.432,0-.522-.822-.522-1.506V32.415a5.9,5.9,0,0,0-1.257-4.124,4.836,4.836,0,0,0-3.763-1.421,4.727,4.727,0,0,0-2.661.835,5.4,5.4,0,0,0-1.917,2.259l-.042.095,2.808,2.624A8.578,8.578,0,0,0,81.5,34.1a2.722,2.722,0,0,0-.823,1.716c-1.092,2.1-2.132,3.175-3.1,3.214a1.027,1.027,0,0,1-1.058-.667,6.975,6.975,0,0,1-.4-2.507v-7.77c0-.336.136-.477.453-.477h3.347v-.551H74.7a3.544,3.544,0,0,0,1.154-1.192,4.2,4.2,0,0,0,.607-2.3l0-.143H74.1v.307l.049.044a1.59,1.59,0,0,1,.5,1.174,2.189,2.189,0,0,1-.447,1.461,1.525,1.525,0,0,1-1.294.648h-.312v.551h1.242a.489.489,0,0,1,.344.127.453.453,0,0,1,.131.35v8.053a4.023,4.023,0,0,0,.731,2.7,2.819,2.819,0,0,0,2.252.865h.081A3.158,3.158,0,0,0,79.6,38.5a9.966,9.966,0,0,0,1.1-1.478,3.175,3.175,0,0,0,1.072,1.945,4.312,4.312,0,0,0,2.938.978,4.621,4.621,0,0,0,2.662-.777,4.534,4.534,0,0,0,1.4-1.533v.088c0,1.406.616,2.147,1.836,2.2a1.629,1.629,0,0,0,1.191-.394,1.843,1.843,0,0,0,.569-1.073,6.773,6.773,0,0,0,.112-1.163,5.539,5.539,0,0,0-.076-.954m-4.79,1.791a3.247,3.247,0,0,1-2.473,1.1,2.336,2.336,0,0,1-1.875-.847,3.348,3.348,0,0,1-.729-2.236,3.277,3.277,0,0,1,.307-1.467,2.785,2.785,0,0,1,.851-1.012,7.952,7.952,0,0,1,1.162-.7c.407-.2.877-.443,1.406-.733a7.782,7.782,0,0,0,1.347-.906.541.541,0,0,0,.124-.642l-.158-.168-.1.1-.265.243-.277.243a1.977,1.977,0,0,1-.3.21c-.137.082-.248.148-.318.194a2.737,2.737,0,0,1-.331.181l-.335.168c-.063.033-.181.086-.352.165s-.289.131-.345.156-.181.08-.374.168l-.261.115a4.4,4.4,0,0,1-1.374-2.886,1.784,1.784,0,0,1,.723-1.511,3.127,3.127,0,0,1,1.952-.568,2.584,2.584,0,0,1,2.411,1.244,8.16,8.16,0,0,1,.744,4.082l0,2.641a4.443,4.443,0,0,1-1.161,2.666" fill="#fff"/>
      <path id="Path_456" data-name="Path 456" d="M102.285,29.262l-2.978,2.9L98.94,31.8l.1-.1a13.371,13.371,0,0,0,1.132-1.286,2.065,2.065,0,0,0,.382-.952,1.965,1.965,0,0,0-.329-1.445,1.265,1.265,0,0,0-1.146-.471,1.931,1.931,0,0,0-1.371.979,7.957,7.957,0,0,0-1.08,2.359,25.843,25.843,0,0,0-.642,2.792,16.754,16.754,0,0,0-.257,2.453v2.265a.5.5,0,0,0,.455.553l1.695.31v.36H93.429v-.3l.065-.068a1.058,1.058,0,0,0,.412-.856V28.281a1.115,1.115,0,0,0-.364-.835h-.09l-.023-.146v-.239H96.92v.346l-.749.224a.613.613,0,0,0-.444.65v3.357q.155-.7.349-1.322a7.777,7.777,0,0,1,1.2-2.359,2.618,2.618,0,0,1,1.9-1.183,2.829,2.829,0,0,1,2.034.532,3.059,3.059,0,0,1,1.058,1.879Z" fill="#fff"/>
      <path id="Path_457" data-name="Path 457" d="M122.011,36.335l-.027-.149-.617.134.024.139a4.187,4.187,0,0,1-.032,1.929c-.146.556-.361.84-.639.84-.433,0-.522-.822-.522-1.506V32.415a5.911,5.911,0,0,0-1.257-4.124,4.832,4.832,0,0,0-3.764-1.421,4.722,4.722,0,0,0-2.66.835,5.38,5.38,0,0,0-1.916,2.259l-.044.095,2.809,2.624a8.527,8.527,0,0,0-2.253,1.42,2.955,2.955,0,0,0-.861,2.254,3.312,3.312,0,0,0,1.126,2.609,4.319,4.319,0,0,0,2.938.978,4.611,4.611,0,0,0,2.663-.777,4.486,4.486,0,0,0,1.4-1.533v.088c0,1.406.616,2.147,1.836,2.2a1.619,1.619,0,0,0,1.19-.394,1.831,1.831,0,0,0,.568-1.073,6.745,6.745,0,0,0,.112-1.163,5.336,5.336,0,0,0-.074-.954m-4.79,1.791a3.248,3.248,0,0,1-2.473,1.1,2.328,2.328,0,0,1-1.873-.847,3.339,3.339,0,0,1-.732-2.236,3.25,3.25,0,0,1,.308-1.467,2.785,2.785,0,0,1,.851-1.012,7.952,7.952,0,0,1,1.162-.7c.407-.2.879-.443,1.405-.733a7.782,7.782,0,0,0,1.347-.906.536.536,0,0,0,.124-.642l-.152-.168-.107.1-.265.243-.277.243a1.992,1.992,0,0,1-.3.21c-.137.082-.243.148-.316.194a3.428,3.428,0,0,1-.33.184l-.337.165c-.061.033-.181.086-.353.165s-.288.131-.344.156-.165.075-.345.156l-.03.012-.258.115a4.405,4.405,0,0,1-1.377-2.886,1.787,1.787,0,0,1,.723-1.511,3.124,3.124,0,0,1,1.953-.568,2.577,2.577,0,0,1,2.409,1.244,8.135,8.135,0,0,1,.746,4.082l0,2.641a4.442,4.442,0,0,1-1.16,2.666" fill="#fff"/>
      <path id="Path_458" data-name="Path 458" d="M125.074,23.477V38.388a.519.519,0,0,0,.479.576l1.43.286v.361h-4.207v-.3l.068-.068a.993.993,0,0,0,.412-.856V22.234h3.727v.355l-1.428.312a.52.52,0,0,0-.481.576" fill="#fff"/>
      <path id="Path_459" data-name="Path 459" d="M146.556,23.812V38.388a.974.974,0,0,0,.4.841l.084.083v.3h-5.263v-.367l2.4-.328a.466.466,0,0,0,.475-.528V30.96a1.617,1.617,0,0,1-1.266.622,5.433,5.433,0,0,1-2.665-1.2,5.365,5.365,0,0,0-2.355-1.149,1.263,1.263,0,0,0-1.023.521,1.939,1.939,0,0,0-.456,1.181v7.449a.464.464,0,0,0,.471.528l2.4.328v.367h-5.26v-.3l.066-.068a.986.986,0,0,0,.414-.856V23.812a1.083,1.083,0,0,0-.363-.835h-.1l-.022-.145v-.238h5.26v.362l-2.4.331a.461.461,0,0,0-.471.525v5.476a2.117,2.117,0,0,1,.448-.362,1.806,1.806,0,0,1,.985-.311,3.512,3.512,0,0,1,1.831.608c.626.386,1.237.78,1.82,1.173,1.13.757,1.9.725,2.334.051a2.156,2.156,0,0,0,.347-1.188V23.812a.463.463,0,0,0-.473-.525l-2.4-.331v-.362h5.263v.383h-.115a1.063,1.063,0,0,0-.366.835" fill="#fff"/>
      <path id="Path_460" data-name="Path 460" d="M159.484,36.335l-.025-.149-.624.134.03.139a4.133,4.133,0,0,1-.033,1.929c-.146.556-.363.84-.637.84-.434,0-.522-.822-.522-1.506V32.415a5.906,5.906,0,0,0-1.259-4.124,4.826,4.826,0,0,0-3.762-1.421,4.723,4.723,0,0,0-2.661.835,5.389,5.389,0,0,0-1.917,2.259l-.044.095,2.811,2.624a8.55,8.55,0,0,0-2.256,1.42,2.961,2.961,0,0,0-.858,2.254,3.313,3.313,0,0,0,1.127,2.609,4.309,4.309,0,0,0,2.937.978,4.624,4.624,0,0,0,2.663-.777,4.5,4.5,0,0,0,1.4-1.533v.088c0,1.406.618,2.147,1.838,2.2a1.621,1.621,0,0,0,1.189-.394,1.833,1.833,0,0,0,.57-1.073,6.847,6.847,0,0,0,.112-1.163,5.48,5.48,0,0,0-.077-.954M154.7,38.126a3.247,3.247,0,0,1-2.473,1.1,2.335,2.335,0,0,1-1.876-.847,3.352,3.352,0,0,1-.728-2.236,3.277,3.277,0,0,1,.306-1.467,2.81,2.81,0,0,1,.853-1.012,7.848,7.848,0,0,1,1.162-.7c.4-.2.877-.447,1.4-.733a7.619,7.619,0,0,0,1.346-.906.539.539,0,0,0,.124-.642l-.156-.168-.1.1-.263.243-.279.243a1.806,1.806,0,0,1-.3.21c-.137.082-.242.144-.316.194a3.474,3.474,0,0,1-.331.184l-.338.165c-.058.033-.181.086-.35.165s-.291.134-.343.156-.17.075-.346.156l-.031.012-.259.115a4.4,4.4,0,0,1-1.375-2.886,1.782,1.782,0,0,1,.723-1.511,3.124,3.124,0,0,1,1.953-.568,2.578,2.578,0,0,1,2.409,1.244,8.127,8.127,0,0,1,.744,4.082l0,2.641a4.422,4.422,0,0,1-1.16,2.666" fill="#fff"/>
      <path id="Path_461" data-name="Path 461" d="M170.506,36.384A3.124,3.124,0,0,1,169,39a5.97,5.97,0,0,1-3.433.949l-.2,0a7.07,7.07,0,0,1-3.3-.806A4.884,4.884,0,0,1,159.927,37l-.043-.1,2.785-2.584.4.4-.115.106a3.078,3.078,0,0,0-1.268,2.252,1.738,1.738,0,0,0,.959,1.564,5.294,5.294,0,0,0,2.651.687,4.907,4.907,0,0,0,2.694-.626,1.9,1.9,0,0,0,1.03-1.627c.013-.792-.608-1.5-1.85-2.087l-4.5-2.127A3,3,0,0,1,160.631,30a2.871,2.871,0,0,1,1.306-2.336,5.4,5.4,0,0,1,3.169-.84,5.972,5.972,0,0,1,2.923.736,4.234,4.234,0,0,1,1.817,2.03l.043.089-2.4,2.418-.374-.375.108-.1A3.756,3.756,0,0,0,168,30.545a2.963,2.963,0,0,0,.332-1.148,1.585,1.585,0,0,0-.865-1.367,4.588,4.588,0,0,0-2.365-.584,4.179,4.179,0,0,0-2.25.493,1.567,1.567,0,0,0-.826,1.373c0,.85.52,1.5,1.587,1.991l4.661,2.152a3.213,3.213,0,0,1,2.236,2.929" fill="#fff"/>
    </g>
  </g>
</svg>
