<svg xmlns="http://www.w3.org/2000/svg" width="24" height="27.743" viewBox="0 0 24 27.743">
  <path id="Path_244" data-name="Path 244" d="M9108.136,174.512h1.029c.4.1.813.165,1.2.3a5.1,5.1,0,0,1,3.4,4.729c0,.321,0,.642,0,.982h.332c1.192,0,2.385,0,3.575,0a.808.808,0,0,1,.874.775c.13,1.175.251,2.351.375,3.526q.286,2.7.57,5.41t.566,5.411c.188,1.795.362,3.591.573,5.383a1.024,1.024,0,0,1-.574,1.223h-22.812a.979.979,0,0,1-.563-1.2c.057-.272.057-.556.086-.834q.532-5.031,1.064-10.062.461-4.386.922-8.772a.842.842,0,0,1,.961-.861q1.759,0,3.52,0h.309c0-.341,0-.647,0-.952a5.123,5.123,0,0,1,3.778-4.883C9107.589,174.617,9107.864,174.571,9108.136,174.512Zm-9.743,26.072h20.522q-.968-9.222-1.932-18.4h-3.218v.258c0,.5.007,1.011,0,1.516a.827.827,0,1,1-1.654.024c-.008-.126,0-.253,0-.379v-1.416H9105.2c0,.12,0,.219,0,.317,0,.5.011.994,0,1.49a.816.816,0,0,1-.809.816.827.827,0,0,1-.845-.809c-.009-.135,0-.271,0-.406v-1.414h-3.216Zm13.71-20.072c0-.344.016-.676,0-1.006a3.45,3.45,0,0,0-5.565-2.6,3.675,3.675,0,0,0-1.3,3.609Z" transform="translate(-9096.647 -174.512)" fill="#8d8d91"/>
</svg>
