<svg xmlns="http://www.w3.org/2000/svg" width="24" height="24" viewBox="0 0 24 24">
  <g id="Group_165" data-name="Group 165" transform="translate(-1851.141 -1001.457)">
    <path id="Path_510" data-name="Path 510" d="M1863.141,1007.215a6.193,6.193,0,1,0,6.194,6.194A6.205,6.205,0,0,0,1863.141,1007.215Zm0,10.161a3.967,3.967,0,1,1,3.968-3.967A3.985,3.985,0,0,1,1863.141,1017.376Z" fill="#fff"/>
    <circle id="Ellipse_7" data-name="Ellipse 7" cx="1.403" cy="1.403" r="1.403" transform="translate(1868.174 1005.667)" fill="#fff"/>
    <path id="Path_511" data-name="Path 511" d="M1873.206,1003.441a6.889,6.889,0,0,0-5.081-1.984h-9.967a6.629,6.629,0,0,0-7.017,7.016v9.919a6.964,6.964,0,0,0,2.033,5.178,7.06,7.06,0,0,0,5.032,1.887h9.871a7.143,7.143,0,0,0,5.081-1.887,6.929,6.929,0,0,0,1.983-5.129v-9.968A6.936,6.936,0,0,0,1873.206,1003.441Zm-.194,15a4.728,4.728,0,0,1-1.4,3.532,5,5,0,0,1-3.532,1.258h-9.871a5,5,0,0,1-3.532-1.258,4.865,4.865,0,0,1-1.307-3.581v-9.919a4.823,4.823,0,0,1,1.307-3.532,4.917,4.917,0,0,1,3.532-1.258h9.968a4.824,4.824,0,0,1,3.532,1.306,4.992,4.992,0,0,1,1.306,3.484v9.968Z" fill="#fff"/>
  </g>
</svg>
