<svg xmlns="http://www.w3.org/2000/svg" width="23.674" height="19.24" viewBox="0 0 23.674 19.24">
  <path id="Path_549" data-name="Path 549" d="M1306.631,3922.519a9.64,9.64,0,0,1-2.79.764,4.871,4.871,0,0,0,2.136-2.686,9.717,9.717,0,0,1-3.084,1.178,4.863,4.863,0,0,0-8.278,4.43,13.787,13.787,0,0,1-10.011-5.075,4.866,4.866,0,0,0,1.5,6.486,4.838,4.838,0,0,1-2.2-.608c0,.02,0,.042,0,.061a4.86,4.86,0,0,0,3.9,4.763,4.9,4.9,0,0,1-2.193.084,4.864,4.864,0,0,0,4.536,3.373,9.743,9.743,0,0,1-6.031,2.08,9.843,9.843,0,0,1-1.158-.068,13.814,13.814,0,0,0,21.264-11.639c0-.21-.006-.42-.015-.629A9.842,9.842,0,0,0,1306.631,3922.519Z" transform="translate(-1282.957 -3920.242)" fill="#8d8d91"/>
</svg>
